<?xml version="1.0" encoding="UTF-8" standalone="no"?>
<!-- Created with Inkscape (http://www.inkscape.org/) -->
<svg
   xmlns:dc="http://purl.org/dc/elements/1.1/"
   xmlns:cc="http://creativecommons.org/ns#"
   xmlns:rdf="http://www.w3.org/1999/02/22-rdf-syntax-ns#"
   xmlns:svg="http://www.w3.org/2000/svg"
   xmlns="http://www.w3.org/2000/svg"
   xmlns:sodipodi="http://sodipodi.sourceforge.net/DTD/sodipodi-0.dtd"
   xmlns:inkscape="http://www.inkscape.org/namespaces/inkscape"
   width="125.82218"
   height="95.332306"
   id="svg2605"
   sodipodi:version="0.32"
   inkscape:version="0.46"
   version="1.0"
   sodipodi:docname="eady_inclement_weather.svg"
   inkscape:output_extension="org.inkscape.output.svg.inkscape"
   inkscape:export-filename="/home/sarah/git/gardengeek/images/openclipart.org/inclement-weather.png"
   inkscape:export-xdpi="57.938911"
   inkscape:export-ydpi="57.938911">
  <defs
     id="defs2607">
    <inkscape:perspective
       sodipodi:type="inkscape:persp3d"
       inkscape:vp_x="0 : 47.666153 : 1"
       inkscape:vp_y="0 : 1000 : 0"
       inkscape:vp_z="125.82218 : 47.666153 : 1"
       inkscape:persp3d-origin="62.911091 : 31.777435 : 1"
       id="perspective21" />
  </defs>
  <sodipodi:namedview
     id="base"
     pagecolor="#ffffff"
     bordercolor="#666666"
     borderopacity="1.0"
     gridtolerance="10000"
     guidetolerance="10"
     objecttolerance="10"
     inkscape:pageopacity="0.0"
     inkscape:pageshadow="2"
     inkscape:zoom="3.0796996"
     inkscape:cx="62.159283"
     inkscape:cy="50.038166"
     inkscape:document-units="px"
     inkscape:current-layer="layer1"
     showgrid="false"
     inkscape:window-width="1236"
     inkscape:window-height="887"
     inkscape:window-x="33"
     inkscape:window-y="0" />
  <metadata
     id="metadata2610">
    <rdf:RDF>
      <cc:Work
         rdf:about="">
        <dc:format>image/svg+xml</dc:format>
        <dc:type
           rdf:resource="http://purl.org/dc/dcmitype/StillImage" />
      </cc:Work>
    </rdf:RDF>
  </metadata>
  <g
     inkscape:label="Layer 1"
     inkscape:groupmode="layer"
     id="layer1"
     transform="translate(-199.94606,-90.410315)">
    <path
       transform="matrix(0.39438,0,0,0.39438,234.69062,7.0213351)"
       style="fill:#9e9e9e;fill-opacity:1;fill-rule:nonzero;stroke:#a6a6a6;stroke-width:0.28064299;stroke-linecap:round;stroke-linejoin:miter;marker:none;marker-start:none;marker-mid:none;marker-end:none;stroke-miterlimit:0.5;stroke-dasharray:none;stroke-dashoffset:0;stroke-opacity:1;visibility:visible;display:inline;overflow:visible"
       sodipodi:type="star"
       sodipodi:sides="10"
       sodipodi:r2="10.240669"
       sodipodi:r1="27.328985"
       sodipodi:cy="356.49231"
       sodipodi:cx="165.33723"
       sodipodi:arg2="-2.5434327"
       sodipodi:arg1="-2.8724252"
       inkscape:rounded="0.13"
       inkscape:randomized="0"
       inkscape:flatsided="false"
       id="path2496"
       d="M 138.99229,349.22474 C 139.64597,346.98532 155.58967,352.67266 156.87462,350.72555 C 158.14929,348.79403 146.46512,336.54365 148.2955,335.12756 C 150.14064,333.70005 159.69642,347.67267 161.88045,346.85271 C 164.04701,346.0393 161.79491,329.26075 164.10807,329.19098 C 166.43988,329.12064 165.95778,346.04148 168.20665,346.66186 C 170.43754,347.27727 178.47774,332.37939 180.39014,333.68258 C 182.31796,334.99629 171.98211,348.40216 173.43684,350.22591 C 174.87993,352.03507 190.14134,344.70834 190.92251,346.88673 C 191.70997,349.08268 175.46832,353.853 175.57325,356.18351 C 175.67734,358.49539 192.33062,361.53837 191.68217,363.75988 C 191.0285,365.9993 175.0848,360.31196 173.79985,362.25906 C 172.52517,364.19059 184.20935,376.44097 182.37897,377.85706 C 180.53383,379.28457 170.97805,365.31195 168.79402,366.13191 C 166.62746,366.94531 168.87956,383.72387 166.5664,383.79364 C 164.23459,383.86398 164.71669,366.94314 162.46782,366.32276 C 160.23693,365.70735 152.19673,380.60523 150.28433,379.30203 C 148.35651,377.98833 158.69236,364.58246 157.23763,362.75871 C 155.79454,360.94955 140.53313,368.27628 139.75196,366.09789 C 138.9645,363.90194 155.20615,359.13162 155.10122,356.80111 C 154.99713,354.48923 138.34385,351.44625 138.99229,349.22474 z" />
    <path
       transform="matrix(0.39438,0,0,0.39438,162.71022,12.476068)"
       style="fill:#9e9e9e;fill-opacity:1;fill-rule:nonzero;stroke:#a6a6a6;stroke-width:0.28064299;stroke-linecap:round;stroke-linejoin:miter;marker:none;marker-start:none;marker-mid:none;marker-end:none;stroke-miterlimit:0.5;stroke-dasharray:none;stroke-dashoffset:0;stroke-opacity:1;visibility:visible;display:inline;overflow:visible"
       sodipodi:type="star"
       sodipodi:sides="10"
       sodipodi:r2="10.240669"
       sodipodi:r1="27.328985"
       sodipodi:cy="356.49231"
       sodipodi:cx="165.33723"
       sodipodi:arg2="-2.5434327"
       sodipodi:arg1="-2.8724252"
       inkscape:rounded="0.13"
       inkscape:randomized="0"
       inkscape:flatsided="false"
       id="path11873"
       d="M 138.99229,349.22474 C 139.64597,346.98532 155.58967,352.67266 156.87462,350.72555 C 158.14929,348.79403 146.46512,336.54365 148.2955,335.12756 C 150.14064,333.70005 159.69642,347.67267 161.88045,346.85271 C 164.04701,346.0393 161.79491,329.26075 164.10807,329.19098 C 166.43988,329.12064 165.95778,346.04148 168.20665,346.66186 C 170.43754,347.27727 178.47774,332.37939 180.39014,333.68258 C 182.31796,334.99629 171.98211,348.40216 173.43684,350.22591 C 174.87993,352.03507 190.14134,344.70834 190.92251,346.88673 C 191.70997,349.08268 175.46832,353.853 175.57325,356.18351 C 175.67734,358.49539 192.33062,361.53837 191.68217,363.75988 C 191.0285,365.9993 175.0848,360.31196 173.79985,362.25906 C 172.52517,364.19059 184.20935,376.44097 182.37897,377.85706 C 180.53383,379.28457 170.97805,365.31195 168.79402,366.13191 C 166.62746,366.94531 168.87956,383.72387 166.5664,383.79364 C 164.23459,383.86398 164.71669,366.94314 162.46782,366.32276 C 160.23693,365.70735 152.19673,380.60523 150.28433,379.30203 C 148.35651,377.98833 158.69236,364.58246 157.23763,362.75871 C 155.79454,360.94955 140.53313,368.27628 139.75196,366.09789 C 138.9645,363.90194 155.20615,359.13162 155.10122,356.80111 C 154.99713,354.48923 138.34385,351.44625 138.99229,349.22474 z" />
    <path
       style="fill:#ffffff;fill-opacity:1;fill-rule:nonzero;stroke:none;stroke-width:6.15399885;stroke-linecap:round;stroke-linejoin:round;marker:none;marker-start:none;marker-mid:none;marker-end:none;stroke-miterlimit:0.5;stroke-dashoffset:0;stroke-opacity:1;visibility:visible;display:inline;overflow:visible"
       sodipodi:nodetypes="cszsssssscssssscsc"
       id="path11037"
       d="M 313.52081,125.19683 C 312.22526,125.20996 314.03492,124.7188 310.73244,124.78867 C 309.23717,124.82031 306.97759,125.42322 305.07928,126.05501 C 303.13202,126.7031 299.77825,127.98319 297.53398,128.54982 C 292.9364,129.7106 295.46619,129.16003 288.60178,130.24509 C 281.48659,131.36978 279.8829,131.51535 278.29834,131.44326 C 276.78214,131.37429 273.0311,131.83779 269.50541,131.36547 C 266.34559,130.94214 265.13419,131.25903 264.40371,131.76409 C 263.67323,132.26912 263.24494,133.18451 263.28689,134.1511 C 263.32884,135.11768 263.83431,135.98132 264.60503,136.40318 C 265.32356,136.83709 266.42008,137.5109 268.24339,138.1231 C 272.89019,139.68329 279.72777,140.75671 287.31508,140.75671 C 294.90239,140.75671 301.73997,139.68329 306.38676,138.1231 C 308.32714,137.4716 309.55319,136.74869 310.31049,136.2688 C 310.95912,135.86424 311.40008,135.13668 311.4995,134.30702 C 311.71268,132.47386 312.82288,130.9617 314.3769,130.38346 C 315.55604,130.02369 316.29249,128.70018 316.06853,127.34333 C 315.84457,125.98647 314.74134,125.11554 313.52081,125.19683 z" />
    <path
       d="M 263.29953,93.487316 C 254.35316,93.487316 246.69167,98.150172 242.93291,104.84794 C 241.43168,104.00983 239.7598,103.49668 237.99262,103.49668 C 232.64859,103.49668 228.20299,107.79535 226.82852,113.63116 C 224.48248,112.70385 221.77484,112.12975 218.86107,112.12975 C 210.11976,112.12975 203.02306,116.91863 203.02306,122.81474 C 203.02306,128.13699 208.83634,132.51518 216.39092,133.32458 C 216.05233,133.89905 215.78549,134.47316 215.78549,135.0762 C 215.78549,140.72141 231.25823,145.31078 250.31914,145.31078 C 269.38005,145.31078 284.85279,140.72141 284.85278,135.0762 C 284.85278,134.69638 284.60176,134.34431 284.46532,133.97518 C 285.30019,134.1828 286.14142,134.40058 287.05656,134.40058 C 292.15565,134.40058 296.28328,130.93362 296.28328,126.66835 C 296.28328,122.40308 292.15564,118.96114 287.05656,118.96114 C 286.43167,118.96114 285.87887,119.16234 285.2887,119.26142 C 285.80476,117.55596 286.16051,115.80723 286.16051,113.95646 C 286.16051,102.66604 275.92586,93.487316 263.29953,93.487316 z"
       id="path11041"
       style="fill:#ffffff;fill-opacity:1;fill-rule:nonzero;stroke:#4b6288;stroke-width:6.15400218999999993;stroke-linecap:round;stroke-linejoin:round;marker:none;marker-start:none;marker-mid:none;marker-end:none;stroke-miterlimit:0.50000000000000000;stroke-dasharray:none;stroke-dashoffset:0;stroke-opacity:1;visibility:visible;display:inline;overflow:visible" />
    <path
       d="M 292.43902,95.124701 C 284.23354,95.124701 277.20654,99.797333 273.75904,106.50912 C 272.38214,105.66927 270.84871,105.15505 269.22788,105.15505 C 264.32642,105.15505 260.24897,109.46272 258.98832,115.31077 C 256.83657,114.38151 254.35315,113.8062 251.68068,113.8062 C 243.66328,113.8062 237.15429,118.60514 237.15429,124.51358 C 237.15429,129.847 242.48614,134.23437 249.41511,135.04545 C 249.10457,135.62114 248.85983,136.19645 248.85983,136.80075 C 248.85983,142.45779 263.05118,147.05678 280.53359,147.05678 C 298.01598,147.05678 312.20738,142.45779 312.20738,136.80075 C 312.20738,136.42013 311.97712,136.06731 311.85198,135.69743 C 312.61773,135.90547 313.38928,136.12371 314.22863,136.12371 C 318.90546,136.12371 322.69124,132.64948 322.69124,128.37528 C 322.69124,124.10108 318.90543,120.65191 314.22863,120.65191 C 313.6555,120.65191 313.14849,120.85352 312.60718,120.95282 C 313.08049,119.24379 313.4068,117.4914 313.4068,115.63674 C 313.4068,104.32267 304.0197,95.124701 292.43902,95.124701 z"
       id="path11043"
       style="fill:#6798e9;fill-opacity:1;fill-rule:nonzero;stroke:#6798e9;stroke-width:6.1539917;stroke-linecap:round;stroke-linejoin:round;marker:none;marker-start:none;marker-mid:none;marker-end:none;stroke-miterlimit:0.5;stroke-dasharray:none;stroke-dashoffset:0;stroke-opacity:1;visibility:visible;display:inline;overflow:visible" />
    <path
       style="fill:#000000;fill-rule:evenodd;stroke:none;stroke-width:1px;stroke-linecap:butt;stroke-linejoin:miter;stroke-opacity:1;fill-opacity:0.625"
       d="M 38.688025,26.336749 C 37.538832,27.526115 36.244542,29.443789 35.817993,31.0436 C 34.825996,34.764176 35.920148,38.094488 37.425211,40.572105 C 38.791302,42.820948 42.095309,44.635738 44.428088,45.852963 C 54.064541,50.881186 68.003567,56.790075 78.868466,57.103486 C 82.398705,57.717795 87.231875,57.677551 90.807797,57.44789 C 94.32241,57.222167 101.84064,55.868472 102.40272,55.61107 C 106.4973,53.735983 110.24747,53.582915 113.30884,47.919386 C 114.99259,47.498448 117.13286,47.883807 118.3601,46.656572 C 118.3601,46.656572 122.51162,43.433342 123.52616,41.490515 C 125.01237,38.644446 123.64096,33.684029 123.64096,33.684029 C 123.64096,33.684029 121.08715,36.20556 119.73771,36.898465 C 117.23329,38.184419 113.47439,39.080716 110.66841,39.309291 C 109.25433,39.424482 107.31627,39.271573 105.96156,38.850086 C 100.05883,37.013578 93.905993,30.473368 87.937765,28.862376 C 84.811525,28.018516 80.356393,28.206491 77.146447,28.632774 C 74.478011,28.987144 68.536352,31.158402 68.536352,31.158402 C 68.536352,31.158402 66.147234,25.633346 60.615065,23.466717 C 56.048914,21.678421 53.091853,22.000131 49.823747,21.974301 C 46.701145,21.949621 41.542535,23.382452 38.688025,26.336749 z"
       id="path3199"
       transform="translate(199.94606,90.410315)"
       sodipodi:nodetypes="csssssscsscssssscsss" />
    <path
       d="M 259.19752,130.02402 C 254.62777,130.02402 250.71434,132.35182 248.79438,135.6955 C 248.02756,135.2771 247.17358,135.02092 246.27091,135.02092 C 243.54122,135.02092 241.27044,137.16693 240.56836,140.08029 C 239.37002,139.61736 237.98698,139.33074 236.49864,139.33074 C 232.03364,139.33074 228.40869,141.72147 228.40869,144.66494 C 228.40869,147.32194 231.37808,149.50763 235.23692,149.91169 C 235.06397,150.19849 234.92766,150.4851 234.92766,150.78615 C 234.92766,153.60437 242.83103,155.89549 252.56723,155.89549 C 262.30341,155.89549 270.20679,153.60437 270.20679,150.78615 C 270.20679,150.59654 270.07856,150.42077 270.00887,150.23649 C 270.43532,150.34015 270.86501,150.44886 271.33246,150.44886 C 273.93704,150.44886 276.0454,148.71807 276.0454,146.58876 C 276.0454,144.45944 273.93703,142.74114 271.33246,142.74114 C 271.01326,142.74114 270.73091,142.84158 270.42945,142.89104 C 270.69304,142.03963 270.87477,141.16663 270.87477,140.24269 C 270.87477,134.60624 265.64696,130.02402 259.19752,130.02402 z"
       id="path11045"
       style="fill:#386195;fill-opacity:1;fill-rule:nonzero;stroke:#386195;stroke-width:6.15399694;stroke-linecap:round;stroke-linejoin:round;marker:none;marker-start:none;marker-mid:none;marker-end:none;stroke-miterlimit:0.5;stroke-dasharray:none;stroke-dashoffset:0;stroke-opacity:1;visibility:visible;display:inline;overflow:visible" />
    <path
       style="fill:#000000;fill-rule:evenodd;stroke:none;stroke-width:1px;stroke-linecap:butt;stroke-linejoin:miter;stroke-opacity:1;fill-opacity:0.43534482"
       d="M 26.519091,53.429846 C 25.893099,53.915234 26.246632,55.326478 26.519091,56.070275 C 26.922552,57.171702 28.130059,58.320725 29.044719,59.055108 C 30.197936,59.98103 33.407167,61.351133 33.407167,61.351133 C 33.407167,61.351133 33.911988,63.037304 34.440378,63.532357 C 35.873178,64.874757 38.627556,65.437963 40.524845,65.943183 C 44.021849,66.874382 48.845372,67.644647 52.464176,67.665202 C 55.868845,67.684541 60.409835,66.991332 63.714699,66.172786 C 66.031056,65.599073 69.209623,64.768462 71.176781,63.417556 C 72.424027,62.561035 74.506018,59.629114 74.506018,59.629114 C 74.506018,59.629114 76.058278,59.542635 76.57244,59.169909 C 77.447583,58.535501 78.409261,56.070275 78.409261,56.070275 C 78.409261,56.070275 78.434281,52.786041 75.65403,51.93743 C 74.082541,51.457767 72.549034,54.441792 70.947179,54.807461 C 69.626973,55.108836 65.983347,55.393154 64.518308,53.085442 C 63.05771,55.551359 60.239429,55.211094 57.40063,55.61107 C 54.706451,55.99067 50.764435,55.251849 48.790535,53.544647 C 46.819929,55.445195 43.269986,56.932987 40.869248,56.299878 C 39.228984,55.867317 36.854102,55.264063 35.358788,54.463057 C 33.792011,55.124378 31.677366,55.636161 30.192731,55.151865 C 28.707398,54.66734 27.502678,52.667183 26.519091,53.429846 z"
       id="path2427"
       transform="translate(199.94606,90.410315)"
       sodipodi:nodetypes="csscssssscscsscscscss" />
    <path
       style="fill:#f5ff12;fill-opacity:1;fill-rule:nonzero;stroke:#f5ff12;stroke-width:0.42887026;stroke-linecap:round;stroke-linejoin:miter;marker:none;marker-start:none;marker-mid:none;marker-end:none;stroke-miterlimit:0.5;stroke-dasharray:none;stroke-dashoffset:0;stroke-opacity:1;visibility:visible;display:inline;overflow:visible"
       sodipodi:nodetypes="cccccccccccccccc"
       id="path11047"
       d="M 293.1018,124.52095 L 275.91061,135.42168 L 292.88926,139.1666 L 277.19603,150.86947 L 270.86004,148.89326 L 275.35393,160.17355 L 293.21313,155.25203 L 285.67269,153.19486 L 306.14828,136.38575 L 287.43129,133.3392 L 305.50557,121.98046 L 295.19566,120.27501 L 306.42471,113.05593 L 302.29961,112.95219 L 284.87437,122.85598 L 293.1018,124.52095 z" />
    <g
       id="g11065"
       transform="translate(-366.46662,-56.432845)">
      <path
         style="opacity:1;fill:#6798e9;fill-opacity:1;fill-rule:nonzero;stroke:#6798e9;stroke-width:4;stroke-linecap:butt;stroke-linejoin:miter;marker:none;marker-start:none;marker-mid:none;marker-end:none;stroke-miterlimit:3.20000005;stroke-dasharray:none;stroke-dashoffset:0;stroke-opacity:1;visibility:visible;display:inline;overflow:visible"
         sodipodi:nodetypes="cccc"
         id="path11049"
         d="M 595.99705,230.2882 C 587.74658,237.55819 597.43389,243.75762 601.11738,233.77438 L 603.94991,224.51421 L 595.99705,230.2882 z" />
      <path
         style="opacity:1;fill:#6798e9;fill-opacity:1;fill-rule:nonzero;stroke:#6798e9;stroke-width:4;stroke-linecap:butt;stroke-linejoin:miter;marker:none;marker-start:none;marker-mid:none;marker-end:none;stroke-miterlimit:3.20000005;stroke-dasharray:none;stroke-dashoffset:0;stroke-opacity:1;visibility:visible;display:inline;overflow:visible"
         sodipodi:nodetypes="cccc"
         id="path11051"
         d="M 625.0456,231.48822 C 616.79513,238.75821 626.48244,244.95764 630.16593,234.9744 L 632.99846,225.71423 L 625.0456,231.48822 z" />
      <path
         style="opacity:1;fill:#6798e9;fill-opacity:1;fill-rule:nonzero;stroke:#6798e9;stroke-width:4;stroke-linecap:butt;stroke-linejoin:miter;marker:none;marker-start:none;marker-mid:none;marker-end:none;stroke-miterlimit:3.20000005;stroke-dasharray:none;stroke-dashoffset:0;stroke-opacity:1;visibility:visible;display:inline;overflow:visible"
         sodipodi:nodetypes="cccc"
         id="path11053"
         d="M 618.28196,216.14478 C 610.03149,223.41477 619.7188,229.6142 623.40229,219.63096 L 626.23482,210.37079 L 618.28196,216.14478 z" />
      <path
         style="opacity:1;fill:#6798e9;fill-opacity:1;fill-rule:nonzero;stroke:#6798e9;stroke-width:4;stroke-linecap:butt;stroke-linejoin:miter;marker:none;marker-start:none;marker-mid:none;marker-end:none;stroke-miterlimit:3.20000005;stroke-dasharray:none;stroke-dashoffset:0;stroke-opacity:1;visibility:visible;display:inline;overflow:visible"
         sodipodi:nodetypes="cccc"
         id="path11055"
         d="M 595.99705,230.2882 C 587.74658,237.55819 597.43389,243.75762 601.11738,233.77438 L 603.94991,224.51421 L 595.99705,230.2882 z" />
      <path
         style="opacity:1;fill:#6798e9;fill-opacity:1;fill-rule:nonzero;stroke:#6798e9;stroke-width:4;stroke-linecap:butt;stroke-linejoin:miter;marker:none;marker-start:none;marker-mid:none;marker-end:none;stroke-miterlimit:3.20000005;stroke-dasharray:none;stroke-dashoffset:0;stroke-opacity:1;visibility:visible;display:inline;overflow:visible"
         sodipodi:nodetypes="cccc"
         id="path11057"
         d="M 625.0456,231.48822 C 616.79513,238.75821 626.48244,244.95764 630.16593,234.9744 L 632.99846,225.71423 L 625.0456,231.48822 z" />
      <path
         style="opacity:1;fill:#6798e9;fill-opacity:1;fill-rule:nonzero;stroke:#6798e9;stroke-width:4;stroke-linecap:butt;stroke-linejoin:miter;marker:none;marker-start:none;marker-mid:none;marker-end:none;stroke-miterlimit:3.20000005;stroke-dasharray:none;stroke-dashoffset:0;stroke-opacity:1;visibility:visible;display:inline;overflow:visible"
         sodipodi:nodetypes="cccc"
         id="path11059"
         d="M 618.28196,216.14478 C 610.03149,223.41477 619.7188,229.6142 623.40229,219.63096 L 626.23482,210.37079 L 618.28196,216.14478 z" />
    </g>
    <path
       transform="matrix(0.39438,0,0,0.39438,146.95093,33.627161)"
       style="fill:#9e9e9e;fill-opacity:1;fill-rule:nonzero;stroke:#a6a6a6;stroke-width:0.28064299;stroke-linecap:round;stroke-linejoin:miter;marker:none;marker-start:none;marker-mid:none;marker-end:none;stroke-miterlimit:0.5;stroke-dasharray:none;stroke-dashoffset:0;stroke-opacity:1;visibility:visible;display:inline;overflow:visible"
       sodipodi:type="star"
       sodipodi:sides="10"
       sodipodi:r2="10.240669"
       sodipodi:r1="27.328985"
       sodipodi:cy="356.49231"
       sodipodi:cx="165.33723"
       sodipodi:arg2="-2.5434327"
       sodipodi:arg1="-2.8724252"
       inkscape:rounded="0.13"
       inkscape:randomized="0"
       inkscape:flatsided="false"
       id="path11894"
       d="M 138.99229,349.22474 C 139.64597,346.98532 155.58967,352.67266 156.87462,350.72555 C 158.14929,348.79403 146.46512,336.54365 148.2955,335.12756 C 150.14064,333.70005 159.69642,347.67267 161.88045,346.85271 C 164.04701,346.0393 161.79491,329.26075 164.10807,329.19098 C 166.43988,329.12064 165.95778,346.04148 168.20665,346.66186 C 170.43754,347.27727 178.47774,332.37939 180.39014,333.68258 C 182.31796,334.99629 171.98211,348.40216 173.43684,350.22591 C 174.87993,352.03507 190.14134,344.70834 190.92251,346.88673 C 191.70997,349.08268 175.46832,353.853 175.57325,356.18351 C 175.67734,358.49539 192.33062,361.53837 191.68217,363.75988 C 191.0285,365.9993 175.0848,360.31196 173.79985,362.25906 C 172.52517,364.19059 184.20935,376.44097 182.37897,377.85706 C 180.53383,379.28457 170.97805,365.31195 168.79402,366.13191 C 166.62746,366.94531 168.87956,383.72387 166.5664,383.79364 C 164.23459,383.86398 164.71669,366.94314 162.46782,366.32276 C 160.23693,365.70735 152.19673,380.60523 150.28433,379.30203 C 148.35651,377.98833 158.69236,364.58246 157.23763,362.75871 C 155.79454,360.94955 140.53313,368.27628 139.75196,366.09789 C 138.9645,363.90194 155.20615,359.13162 155.10122,356.80111 C 154.99713,354.48923 138.34385,351.44625 138.99229,349.22474 z" />
    <path
       transform="matrix(0.39438,0,0,0.39438,249.61478,28.603972)"
       style="fill:#9e9e9e;fill-opacity:1;fill-rule:nonzero;stroke:#a6a6a6;stroke-width:0.28064299;stroke-linecap:round;stroke-linejoin:miter;marker:none;marker-start:none;marker-mid:none;marker-end:none;stroke-miterlimit:0.5;stroke-dasharray:none;stroke-dashoffset:0;stroke-opacity:1;visibility:visible;display:inline;overflow:visible"
       sodipodi:type="star"
       sodipodi:sides="10"
       sodipodi:r2="10.240669"
       sodipodi:r1="27.328985"
       sodipodi:cy="356.49231"
       sodipodi:cx="165.33723"
       sodipodi:arg2="-2.5434327"
       sodipodi:arg1="-2.8724252"
       inkscape:rounded="0.13"
       inkscape:randomized="0"
       inkscape:flatsided="false"
       id="path2492"
       d="M 138.99229,349.22474 C 139.64597,346.98532 155.58967,352.67266 156.87462,350.72555 C 158.14929,348.79403 146.46512,336.54365 148.2955,335.12756 C 150.14064,333.70005 159.69642,347.67267 161.88045,346.85271 C 164.04701,346.0393 161.79491,329.26075 164.10807,329.19098 C 166.43988,329.12064 165.95778,346.04148 168.20665,346.66186 C 170.43754,347.27727 178.47774,332.37939 180.39014,333.68258 C 182.31796,334.99629 171.98211,348.40216 173.43684,350.22591 C 174.87993,352.03507 190.14134,344.70834 190.92251,346.88673 C 191.70997,349.08268 175.46832,353.853 175.57325,356.18351 C 175.67734,358.49539 192.33062,361.53837 191.68217,363.75988 C 191.0285,365.9993 175.0848,360.31196 173.79985,362.25906 C 172.52517,364.19059 184.20935,376.44097 182.37897,377.85706 C 180.53383,379.28457 170.97805,365.31195 168.79402,366.13191 C 166.62746,366.94531 168.87956,383.72387 166.5664,383.79364 C 164.23459,383.86398 164.71669,366.94314 162.46782,366.32276 C 160.23693,365.70735 152.19673,380.60523 150.28433,379.30203 C 148.35651,377.98833 158.69236,364.58246 157.23763,362.75871 C 155.79454,360.94955 140.53313,368.27628 139.75196,366.09789 C 138.9645,363.90194 155.20615,359.13162 155.10122,356.80111 C 154.99713,354.48923 138.34385,351.44625 138.99229,349.22474 z" />
    <path
       transform="matrix(0.39438,0,0,0.39438,217.55371,32.764478)"
       style="fill:#9e9e9e;fill-opacity:1;fill-rule:nonzero;stroke:#a6a6a6;stroke-width:0.28064299;stroke-linecap:round;stroke-linejoin:miter;marker:none;marker-start:none;marker-mid:none;marker-end:none;stroke-miterlimit:0.5;stroke-dasharray:none;stroke-dashoffset:0;stroke-opacity:1;visibility:visible;display:inline;overflow:visible"
       sodipodi:type="star"
       sodipodi:sides="10"
       sodipodi:r2="10.240669"
       sodipodi:r1="27.328985"
       sodipodi:cy="356.49231"
       sodipodi:cx="165.33723"
       sodipodi:arg2="-2.5434327"
       sodipodi:arg1="-2.8724252"
       inkscape:rounded="0.13"
       inkscape:randomized="0"
       inkscape:flatsided="false"
       id="path2494"
       d="M 138.99229,349.22474 C 139.64597,346.98532 155.58967,352.67266 156.87462,350.72555 C 158.14929,348.79403 146.46512,336.54365 148.2955,335.12756 C 150.14064,333.70005 159.69642,347.67267 161.88045,346.85271 C 164.04701,346.0393 161.79491,329.26075 164.10807,329.19098 C 166.43988,329.12064 165.95778,346.04148 168.20665,346.66186 C 170.43754,347.27727 178.47774,332.37939 180.39014,333.68258 C 182.31796,334.99629 171.98211,348.40216 173.43684,350.22591 C 174.87993,352.03507 190.14134,344.70834 190.92251,346.88673 C 191.70997,349.08268 175.46832,353.853 175.57325,356.18351 C 175.67734,358.49539 192.33062,361.53837 191.68217,363.75988 C 191.0285,365.9993 175.0848,360.31196 173.79985,362.25906 C 172.52517,364.19059 184.20935,376.44097 182.37897,377.85706 C 180.53383,379.28457 170.97805,365.31195 168.79402,366.13191 C 166.62746,366.94531 168.87956,383.72387 166.5664,383.79364 C 164.23459,383.86398 164.71669,366.94314 162.46782,366.32276 C 160.23693,365.70735 152.19673,380.60523 150.28433,379.30203 C 148.35651,377.98833 158.69236,364.58246 157.23763,362.75871 C 155.79454,360.94955 140.53313,368.27628 139.75196,366.09789 C 138.9645,363.90194 155.20615,359.13162 155.10122,356.80111 C 154.99713,354.48923 138.34385,351.44625 138.99229,349.22474 z" />
  </g>
</svg>
