<?xml version="1.0" encoding="UTF-8" standalone="no"?>
<!-- Created with Inkscape (http://www.inkscape.org/) -->
<svg
   xmlns:dc="http://purl.org/dc/elements/1.1/"
   xmlns:cc="http://creativecommons.org/ns#"
   xmlns:rdf="http://www.w3.org/1999/02/22-rdf-syntax-ns#"
   xmlns:svg="http://www.w3.org/2000/svg"
   xmlns="http://www.w3.org/2000/svg"
   xmlns:sodipodi="http://sodipodi.sourceforge.net/DTD/sodipodi-0.dtd"
   xmlns:inkscape="http://www.inkscape.org/namespaces/inkscape"
   width="259.39465"
   height="138.03705"
   id="svg2"
   version="1.1"
   inkscape:version="0.46"
   sodipodi:docname="mazeo_squirrel.svg"
   sodipodi:version="0.32"
   inkscape:output_extension="org.inkscape.output.svg.inkscape"
   inkscape:export-filename="/home/sarah/git/gardengeek/images/openclipart.org/cloud-seeding.png"
   inkscape:export-xdpi="39.900593"
   inkscape:export-ydpi="39.900593">
  <title
     id="title2831">Squirrel</title>
  <defs
     id="defs4">
    <inkscape:perspective
       sodipodi:type="inkscape:persp3d"
       inkscape:vp_x="0 : 69.018524 : 1"
       inkscape:vp_y="0 : 1000 : 0"
       inkscape:vp_z="259.39465 : 69.018524 : 1"
       inkscape:persp3d-origin="129.69733 : 46.012349 : 1"
       id="perspective16582" />
  </defs>
  <sodipodi:namedview
     id="base"
     pagecolor="#ffffff"
     bordercolor="#666666"
     borderopacity="1.0"
     inkscape:pageopacity="0.0"
     inkscape:pageshadow="2"
     inkscape:zoom="1.4"
     inkscape:cx="182.16012"
     inkscape:cy="53.106451"
     inkscape:document-units="px"
     inkscape:current-layer="layer1"
     showgrid="false"
     inkscape:window-width="1280"
     inkscape:window-height="753"
     inkscape:window-x="-4"
     inkscape:window-y="-4"
     inkscape:window-maximized="1" />
  <metadata
     id="metadata7">
    <rdf:RDF>
      <cc:Work
         rdf:about="">
        <dc:format>image/svg+xml</dc:format>
        <dc:type
           rdf:resource="http://purl.org/dc/dcmitype/StillImage" />
        <dc:title>Squirrel</dc:title>
        <cc:license
           rdf:resource="http://creativecommons.org/licenses/publicdomain/" />
        <dc:date>2010-09-12</dc:date>
        <dc:creator>
          <cc:Agent>
            <dc:title>mazeo</dc:title>
          </cc:Agent>
        </dc:creator>
        <dc:publisher>
          <cc:Agent>
            <dc:title>openclipart.org</dc:title>
          </cc:Agent>
        </dc:publisher>
        <dc:language>en</dc:language>
        <dc:subject>
          <rdf:Bag>
            <rdf:li>squirrel</rdf:li>
            <rdf:li>rodent</rdf:li>
            <rdf:li>animal</rdf:li>
            <rdf:li>mammal</rdf:li>
            <rdf:li>tree squirrel</rdf:li>
          </rdf:Bag>
        </dc:subject>
        <dc:description>A squirrel.</dc:description>
      </cc:Work>
      <cc:License
         rdf:about="http://creativecommons.org/licenses/publicdomain/">
        <cc:permits
           rdf:resource="http://creativecommons.org/ns#Reproduction" />
        <cc:permits
           rdf:resource="http://creativecommons.org/ns#Distribution" />
        <cc:permits
           rdf:resource="http://creativecommons.org/ns#DerivativeWorks" />
      </cc:License>
    </rdf:RDF>
  </metadata>
  <g
     inkscape:label="Layer 1"
     inkscape:groupmode="layer"
     id="layer1"
     transform="translate(-46.362191,-476.00301)">
    <g
       id="g2827">
      <path
         sodipodi:nodetypes="csssssssssssccsssssssssssssssssssssssssscccssssssssssssssssssssssssssssssssssssssssssssssssssssssccccccccccsssscccssssscc"
         id="path2864"
         d="m 46.875761,560.47117 c 0.28247,0 1.29497,0.41794 2.25,0.92877 0.95504,0.51082 7.36143,1.66124 14.23643,2.55649 6.875,0.89525 15.425,2.12653 19,2.73617 10.57558,1.80344 15.0876,1.60425 16.34153,-0.72143 0.59308,-1.1 1.826459,-3.14164 2.740839,-4.53698 2.11805,-3.23211 1.24307,-15.11692 -1.40585,-19.09564 -1.958749,-2.94208 -6.844429,-4.38307 -9.692639,-2.85875 -2.6615,1.42439 -6.29743,1.22145 -8.54275,-0.47683 -1.06762,-0.80751 -2.88132,-1.4825 -4.03045,-1.5 -2.4006,-0.0365 -8.41068,-6.18246 -8.41068,-8.60078 0,-2.2906 3.6702,-7.18808 9.24651,-12.33846 2.62456,-2.4241 4.61576,-4.56363 4.42487,-4.75451 1.43832,1.48772 -2.70244,-0.52934 5.57862,-2.76083 2.26177,-0.65306 2.75,-1.36225 2.75,-3.9945 0,-4.034 1.67325,-6.16804 5.5,-7.01462 1.65,-0.36503 3.899999,-0.89712 4.999999,-1.18244 1.48689,-0.38567 2.50811,0.33212 3.98051,2.79779 2.04525,3.42497 2.18403,3.79107 2.39449,6.31655 0.0687,0.825 0.4625,1.42733 0.875,1.33852 1.35267,-0.29124 5.80409,1.91926 7.16354,3.5573 0.73242,0.88252 2.82425,1.60418 4.64989,1.60418 1.82519,0 3.61016,0.47185 3.96658,1.04856 0.43568,0.70494 1.17333,0.62302 2.25098,-0.25 1.20158,-0.97342 1.41489,-0.98558 0.85195,-0.0486 -1.07769,1.79381 -0.27013,1.60199 7.36706,-1.75 3.75938,-1.65 7.7723,-3 8.91761,-3 1.14532,0 2.0823,-0.3375 2.08218,-0.75 -1.2e-4,-0.4125 3.55634,-0.75 7.90323,-0.75 4.55483,0 7.66308,0.38977 7.33616,0.91994 -0.312,0.50596 0.15248,0.64374 1.03217,0.30618 0.87969,-0.33757 1.75045,-0.16073 1.93501,0.39297 0.18457,0.55371 1.50208,1.13479 2.9278,1.29129 1.42572,0.15651 3.65391,1.0282 4.95153,1.93709 1.29763,0.90889 3.41075,1.65253 4.69583,1.65253 1.30303,0 2.06315,0.44232 1.71848,1 -0.33992,0.55 -0.21562,1 0.27622,1 0.49184,0 2.94827,2.025 5.45874,4.5 2.51046,2.475 5.01082,4.5 5.55635,4.5 0.54553,0 1.26432,1.0125 1.59731,2.25 0.33298,1.2375 1.4898,3.375 2.5707,4.75 l 1.96527,2.5 1.7877,-2.5 c 2.04385,-2.8582 4.25044,-8.66821 4.27265,-11.25 0.008,-0.9625 0.42104,-1.75 0.91723,-1.75 1.08909,0 3.1678,-5.59669 2.37367,-6.39082 -0.30846,-0.30847 -0.10877,-1.13422 0.44377,-1.83501 0.55254,-0.70079 1.30024,-2.51167 1.66155,-4.02417 0.36132,-1.5125 1.06167,-2.75 1.55633,-2.75 1.48615,0 5.12967,-6.6614 4.51692,-8.25821 -0.31967,-0.83304 0.11367,-1.7458 0.98812,-2.08136 0.85661,-0.32871 1.55747,-1.23919 1.55747,-2.02329 0,-1.68203 4.64362,-6.85483 7.5,-8.3547 1.1,-0.5776 3.9125,-1.36699 6.25,-1.75421 2.3375,-0.38721 4.25,-1.08151 4.25,-1.54289 0,-1.36473 5.91068,-3.93888 6.57525,-2.86358 0.32619,0.52778 1.41732,0.69798 2.42475,0.37824 1.00743,-0.31975 2.12111,-0.11305 2.47486,0.45932 0.35375,0.57237 1.85837,1.04068 3.34361,1.04068 1.54921,0 3.1954,0.79256 3.86146,1.8591 0.63856,1.0225 2.55832,2.13855 4.26612,2.48011 1.7078,0.34156 4.23904,1.75497 5.62497,3.1409 1.38594,1.38594 2.95867,2.51989 3.49495,2.51989 0.53628,0 4.00332,3.0375 7.70454,6.75 4.76702,4.78155 6.82432,7.6214 7.05467,9.73812 0.17885,1.64347 0.70108,3.44347 1.16051,4 1.02347,1.23978 1.83106,5.98207 2.44458,14.35498 0.4262,5.81654 0.25709,6.52216 -2.03712,8.5 -1.63955,1.41347 -2.62048,3.4418 -2.84595,5.88475 -0.25597,2.77355 -1.38204,4.75553 -4.39887,7.74236 -2.55061,2.52525 -4.29895,5.31574 -4.71287,7.52215 -0.37194,1.98259 -1.25354,3.50764 -2.0277,3.50764 -0.75331,0 -1.65123,1.12189 -1.99538,2.49309 -0.34415,1.3712 -0.98057,2.27378 -1.41427,2.00574 -0.4337,-0.26804 -1.04657,0.18507 -1.36194,1.00691 -0.31537,0.82184 -1.17767,1.49426 -1.91622,1.49426 -0.73856,0 -2.35095,0.93921 -3.58311,2.08714 -2.76775,2.57855 -4.90634,1.87252 -6.28209,-2.07395 -1.24245,-3.56412 -1.82558,-3.69605 -4.1804,-0.94582 -3.2419,3.78625 -4.20288,1.92894 -3.81316,-7.36978 0.27511,-6.56407 0.0159,-8.96332 -1.08744,-10.0667 -2.22308,-2.22308 -0.29156,-13.97476 3.14437,-19.13089 4.01905,-6.03118 4.00704,-6.00307 3.15422,-7.38294 -1.37848,-2.23044 -7.87046,0.32612 -11.62836,4.5793 -1.8484,2.092 -3.37946,4.37225 -3.40235,5.06721 -0.0229,0.69496 -0.45878,2.04496 -0.96863,3 -0.50985,0.95504 -1.15445,2.4815 -1.43243,3.39213 -0.27799,0.91064 -1.83296,1.94728 -3.4555,2.30365 -1.62254,0.35637 -4.13142,1.97381 -5.57529,3.5943 -1.44386,1.62049 -3.32329,2.94635 -4.17651,2.94635 -0.85322,0 -1.28714,0.42742 -0.96428,0.94983 0.72472,1.17262 -2.60661,3.05017 -5.41191,3.05017 -1.14092,0 -3.4205,1.19938 -5.06574,2.6653 -3.69557,3.29277 -4.17652,9.15263 -0.99451,12.11712 1.09826,1.02319 2.38929,3.96106 2.86896,6.5286 0.47967,2.56755 1.36089,5.25719 1.95826,5.97698 1.25959,1.51771 1.64015,7.26391 0.68266,10.30765 -0.5772,1.83483 -0.24526,2.10112 2.66702,2.13957 3.35557,0.80793 17.98214,3.77211 10.09373,0.92145 29.59595,9.13038 32.20141,10.7334 78.70208,15.90422 l -1.01015,8.58122 -128.98985,-19.1929 -126.969539,-19.1929 0,13.74366 0,4e-5 c 0.444969,-9.12639 -0.532684,-18.39963 0.51357,-27.49997 z m 137.486429,22 c 0,-0.55 1.35,-1 3,-1 3.96794,0 3.7902,-1.34851 -0.52964,-4.01832 -3.34956,-2.07014 -3.70125,-2.1 -6.89338,-0.58523 -2.05225,0.97386 -4.5277,1.36341 -6.34908,0.99913 -3.37419,-0.67484 -5.04225,0.91827 -3.23788,3.0924 1.62523,1.95827 14.00998,3.2949 14.00998,1.51202 z m -37.41545,-7.75 c -10.01415,-8.27692 -9.95894,-8.25 -16.92013,-8.25 -5.88392,0 -6.72526,0.26188 -8.63301,2.6872 -1.63678,2.08083 -1.8198,2.85172 -0.81106,3.41624 1.41904,0.79413 14.59292,3.41484 22.39785,4.45564 2.68499,0.35806 5.0693,0.82874 5.29847,1.04596 0.22916,0.21723 1.04403,0.39496 1.81082,0.39496 0.76678,0 -0.64754,-1.6875 -3.14294,-3.75 z"
         style="fill:#999999" />
      <path
         sodipodi:nodetypes="cssssssssscccsssssssssssccsccssssssssssssssssssssssssssssssssssssssssssssssssssssssssssssssssssssssssssssssssssssssssssssssssssssssssssssssssssssssssssssssssssssssssssssssssssssssssssssssscccccsssssssssssssssssssssssssssssssssssssssssssssssssssssssssscccsssssscccccssssssssssssssssssssscccsssccssssssssssssssssssscccsssssssssssssssssssssssssssssssssssssssssssssssssssssssssscccssssccccsscccsscccssssscccscccscccsccccccscccscccsccsssssssssssssssssssssscccssssssssscccsccccscccsccccsscccsssscccccsscccscccsssccccsssscccssscccsscccsscccsssscccsscccsscccsssssssssssssssscccsssssssscccsccccsccccsscccsscccscccccssccccsscccssssssssssssccccccccsscccssscccsscccscccscccsscccsscccscccssscccsscccscccsscccsscccssssccccsscccsscccsssssssssssssssssssssssssccccscccsscccsscccsscccsscccscccscccsscccsccccsssscccscccsscccsscccsssssscccccccssscccsssscccscccsscccscccssssscccsscccscccscccsccc"
         id="path2832"
         d="m 184.00685,594.72016 c -1.2375,-0.002 -2.25,-0.45301 -2.25,-1.00301 0,-2.14573 14.77482,-0.27368 28.5,3.61112 3.3,0.93403 8.7,1.81122 12,1.94931 7.12697,0.29823 14.01178,1.78311 18.06314,3.89577 1.61527,0.84231 5.18686,1.53433 7.93686,1.53781 2.75,0.003 8.6,0.70094 13,1.54991 7.51032,1.4491 17.11395,2.86896 27.5,4.06577 2.475,0.2852 5.71144,0.9835 7.1921,1.55176 1.48065,0.56827 4.29315,1.07861 6.25,1.13407 1.95684,0.0555 3.5579,0.46167 3.5579,0.90267 -41.70306,1.23651 -81.70747,-6.83386 -121.75,-19.19518 z m 94.12919,6.34995 c -1.34258,-0.69654 -3.00038,-1.05181 -3.68401,-0.78948 -0.68362,0.26234 -3.4822,-0.20226 -6.21906,-1.03243 -2.73687,-0.83016 -6.47139,-1.51426 -8.29893,-1.52022 -1.82755,-0.006 -7.15964,-0.95535 -11.84908,-2.10978 -4.68944,-1.15443 -9.80791,-1.91085 -11.37437,-1.68094 -1.56646,0.22991 -2.64915,0.0961 -2.40596,-0.29741 0.24318,-0.39348 -3.19898,-1.03773 -7.64925,-1.43167 -4.45027,-0.39394 -10.523,-1.2815 -13.49496,-1.97235 -5.63528,-1.30997 -7.0059,-1.10824 -3.15357,0.46415 1.52483,0.62237 -1.37257,0.85371 -8.98975,0.71777 -6.18187,-0.11032 -11.24437,-0.48553 -11.25,-0.83379 -0.0127,-0.78524 -1.08809,-0.83915 -24.51025,-1.22878 -33.45344,-3.1131 -3.27404,6.10061 -38.25,0.43322 -1.7875,-0.0392 -7.53571,-1.62662 -7.53571,-2.21808 0,-0.59145 5.52321,0.0777 7.03571,0.1774 14.10922,-3.2773 4.08089,0.90516 26.25329,-0.0375 4.22657,0.57932 4.99671,0.095 4.99671,-1.78571 0,-3.31783 -2.62462,-5.23243 -6.19418,-4.51851 -2.22453,0.4449 -2.91225,0.29239 -2.40229,-0.53274 0.46957,-0.75979 -0.24843,-1.20965 -2.09451,-1.31232 -6.23617,-0.34683 -11.22512,-1.16375 -29.82214,-4.88324 -2.85782,-0.57158 -2.53053,0.35631 0.51312,1.45476 1.925,0.69473 3.275,1.67299 3,2.17392 -0.275,0.50093 -0.95,0.73594 -1.5,0.52224 -0.55,-0.2137 -3.925,-0.45219 -7.5,-0.52997 -3.575,-0.0778 -7.4,-0.67676 -8.5,-1.33105 -1.96131,-1.16661 -1.95762,-1.19021 0.19099,-1.22003 1.20504,-0.0167 2.4691,-0.48041 2.80901,-1.03041 0.33992,-0.55 1.66482,-1 2.94421,-1 3.74326,0 8.06174,-2.25746 10.99968,-5.75 1.71141,-2.03449 3.72917,-3.30093 5.39501,-3.38618 2.35624,-0.12058 2.40334,-0.18583 0.4111,-0.56955 -2.42595,-0.46726 -2.51896,-0.69001 -1.64624,-3.94283 0.47563,-1.77275 1.12916,-2.06241 3.73635,-1.65602 3.83858,0.59834 3.60577,0.37996 3.87518,3.63509 0.17968,2.17111 0.71951,2.66949 2.89153,2.66949 2.28963,0 2.7747,-0.53495 3.40034,-3.75 0.71155,-3.65653 0.75428,-3.68769 1.71413,-1.25 0.54141,1.375 1.38811,3.28139 1.88155,4.23643 0.49344,0.95504 0.89716,2.16706 0.89716,2.69339 0,1.44725 10.86865,11.461 13.38924,12.33607 1.29784,0.45057 2.59819,2.0974 3.15843,4 0.67339,2.28683 1.64514,3.33213 3.31767,3.56877 2.66092,0.37649 5.50964,-1.76383 3.38466,-2.54299 -2.0664,-0.75769 -1.40617,-2.47601 0.6951,-1.80909 1.63595,0.51923 1.9141,0.17232 1.75,-2.18262 -0.18705,-2.68446 0.0112,-2.81206 4.8049,-3.0934 3.16309,-0.18563 5.4525,-0.88958 6.2317,-1.9161 1.06695,-1.40562 1.73572,-1.45476 5,-0.36738 2.07256,0.6904 4.57681,2.34014 5.56498,3.6661 2.16681,2.90746 0.94313,3.07301 -3.64913,0.49369 -2.60149,-1.46117 -3.69099,-1.63954 -4.58092,-0.75 -0.6422,0.64192 -3.22419,1.16713 -5.73777,1.16713 -2.51357,0 -4.62835,0.45 -4.6995,1 -0.18549,1.43392 11.56605,2.55363 13.15237,1.25319 0.89911,-0.73708 2.42636,-0.70781 5.11602,0.098 5.21069,1.56116 8.16891,1.48607 7.52536,-0.19101 -0.55858,-1.45562 1.89873,-3.9434 4.23358,-4.28609 1.20621,-0.17703 1.23378,0.0529 0.16129,1.3452 -0.7115,0.8573 -1.16004,2.57819 -0.99676,3.82419 0.34923,2.66497 -1.22528,3.92934 -3.61911,2.90626 -0.93616,-0.4001 -2.37711,-0.81776 -3.20211,-0.92813 -0.825,-0.11037 -3.00213,-0.54235 -4.83806,-0.95995 -3.20752,-0.72959 -3.29205,-0.67331 -2.16148,1.43917 0.84731,1.58322 1.84166,2.07131 3.55317,1.74414 1.30713,-0.24988 2.5048,-0.0799 2.66148,0.3777 0.15669,0.4576 1.85989,1.10509 3.78489,1.43885 2.6373,0.45726 3.13027,0.34337 2,-0.46205 -1.28909,-0.91858 -1.24695,-1.07103 0.29966,-1.08419 0.98981,-0.008 3.16798,-0.7229 4.84037,-1.58772 2.94477,-1.5228 3.01996,-1.50703 2.38295,0.5 -0.85269,2.68659 0.19564,2.64146 2.41889,-0.10414 1.63601,-2.02038 1.64751,-2.39706 0.1603,-5.25 -0.88119,-1.6904 -1.94247,-3.22438 -2.3584,-3.40886 -0.41593,-0.18448 -0.48836,-0.76883 -0.16097,-1.29856 0.89843,-1.4537 3.39801,1.02692 3.5332,3.50641 0.0959,1.75979 0.19666,1.81675 0.58258,0.32952 0.25661,-0.98892 0.0131,-2.34439 -0.54105,-3.01214 -0.55419,-0.66776 -1.95834,-3.75515 -3.12033,-6.86086 -1.162,-3.10571 -2.71329,-6.14517 -3.44731,-6.75435 -0.73402,-0.60919 -0.26702,1.00108 1.03777,3.57837 3.41911,6.75361 3.15934,7.91142 -2.07048,9.22831 -6.13195,1.54404 -7.09994,1.47762 -5.55718,-0.38129 0.68469,-0.825 2.31479,-1.5 3.62244,-1.5 1.30766,0 2.37756,-0.45 2.37756,-1 0,-0.55 -0.7301,-1 -1.62244,-1 -1.25882,0 -1.36812,-0.30645 -0.48767,-1.36732 0.86162,-1.0382 0.78129,-1.66069 -0.33375,-2.58609 -0.80769,-0.67032 -1.93824,-0.92847 -2.51234,-0.57366 -0.57409,0.35484 -1.0438,0.16858 -1.0438,-0.41388 0,-0.58246 0.49814,-1.05902 1.10699,-1.05902 0.66964,0 0.8145,-0.69139 0.36665,-1.75 -0.40718,-0.9625 -0.67543,-2.95792 -0.59611,-4.43426 0.17451,-3.24797 -1.56712,-4.59512 -3.19406,-2.47061 -1.74784,2.28237 -6.09655,3.06699 -7.51642,1.35616 -0.97554,-1.17546 -0.78601,-1.35926 1.07421,-1.04174 2.84492,0.4856 7.25874,-1.74929 7.25874,-3.67539 0,-0.80122 0.79925,-1.61069 1.77612,-1.79882 0.97686,-0.18813 1.71107,0.0307 1.63158,0.48631 -0.41699,2.38973 0.22488,3.49145 1.70355,2.92403 1.30407,-0.50042 1.49108,-0.13953 0.98094,1.89302 -0.36422,1.45117 -0.20011,2.5113 0.38876,2.5113 0.56048,0 1.01905,-1.5382 1.01905,-3.41821 0,-1.88002 0.26591,-4.11118 0.59092,-4.95813 0.41051,-1.06977 -0.20011,-1.73845 -2,-2.1902 -1.42501,-0.35765 -2.59092,-1.00936 -2.59092,-1.44825 0,-0.43888 0.87461,-0.56926 1.94358,-0.28971 1.24357,0.3252 2.77426,-0.38081 4.25,-1.96025 1.26853,-1.35768 3.83212,-4.10352 5.69686,-6.10188 1.86475,-1.99835 3.77725,-3.63337 4.25,-3.63337 1.8205,0 0.7374,2.95093 -1.82204,4.96419 -1.47489,1.16014 -3.23375,2.89764 -3.90859,3.86111 -1.10851,1.58262 -0.89787,1.71333 2.18161,1.35382 2.53584,-0.29604 3.40858,-0.882 3.40858,-2.28853 0,-1.336 0.71359,-1.89059 2.43261,-1.89059 1.48778,0 2.66046,-0.71787 3.01922,-1.84824 0.59231,-1.8662 4.46578,-4.15176 7.03621,-4.15176 0.76666,0 1.66886,-0.44485 2.00488,-0.98855 0.34118,-0.55203 -0.0297,-0.74271 -0.83983,-0.43182 -0.79793,0.30619 -1.74786,0.076 -2.11096,-0.51146 -0.3809,-0.61631 0.15444,-1.06817 1.26553,-1.06817 1.36772,0 2.52921,-1.45223 4.0086,-5.01204 1.1456,-2.75662 2.7806,-5.27976 3.63332,-5.60699 0.85273,-0.32722 1.54481,-1.1093 1.53795,-1.73796 -0.007,-0.62866 -1.74002,0.71666 -3.85147,2.98959 -2.11145,2.27293 -5.48084,4.91171 -7.48753,5.86394 -2.35411,1.1171 -3.64853,2.42141 -3.64853,3.67642 0,1.06979 -0.45,1.66696 -1,1.32704 -2.22302,-1.3739 -0.87238,-4.55547 2.96125,-6.97554 2.17869,-1.37535 4.9565,-3.84677 6.17292,-5.49206 1.21641,-1.64528 3.70127,-3.48305 5.52192,-4.08391 3.223,-1.06369 7.34391,-5.53387 7.34391,-7.96636 0,-1.22161 -3.82135,-0.98876 -7.12096,0.43391 -1.03109,0.44457 -1.83844,0.13214 -2.21861,-0.85857 -0.41247,-1.07488 -0.006,-1.55747 1.31194,-1.55747 1.05028,0 2.18771,-0.45 2.52763,-1 0.33992,-0.55 1.49148,-1 2.55902,-1 1.30479,0 1.94098,-0.68794 1.94098,-2.09887 0,-3.28501 3.12044,-9.18069 4.25737,-8.04376 0.63212,0.63212 0.40686,1.78392 -0.64164,3.28087 -2.02716,2.89417 -2.08376,7.22844 -0.11573,8.86176 0.825,0.68469 1.5,1.91357 1.5,2.73085 0,1.08569 0.67343,1.31694 2.5,0.85851 1.44165,-0.36183 2.5,-0.19606 2.5,0.39159 0,0.56048 -1.0699,1.01905 -2.37756,1.01905 -1.30765,0 -2.93775,0.675 -3.62244,1.5 -0.68469,0.825 -1.93979,1.5 -2.78911,1.5 -0.84932,0 -1.24691,0.29731 -0.88353,0.66069 0.36338,0.36338 2.2451,-0.19258 4.18161,-1.23546 2.69423,-1.45093 3.92608,-1.64058 5.24647,-0.8077 1.13657,0.71693 2.8427,0.77999 4.99849,0.18475 1.80012,-0.49704 3.71689,-0.62933 4.25951,-0.29398 1.35357,0.83656 1.24777,2.54975 -0.13844,2.2417 -0.61875,-0.1375 -1.33125,0.3125 -1.58333,1 -0.25209,0.6875 0.25416,1.25 1.125,1.25 0.94346,0 1.58333,0.85149 1.58333,2.10699 0,1.59475 0.42545,1.9444 1.75,1.43823 1.29539,-0.49503 1.1655,-0.12303 -0.5,1.43197 -1.2375,1.15539 -2.25,2.75819 -2.25,3.56177 0,0.80357 -0.45,1.46104 -1,1.46104 -0.55,0 -1,-1.35 -1,-3 0,-1.72517 0.53118,-3.00651 1.25,-3.01531 0.82982,-0.0102 0.74587,-0.334 -0.24976,-0.96338 -1.0836,-0.68499 -1.68844,-0.47263 -2.17972,0.76531 -0.55313,1.39382 -0.69306,1.29373 -0.75023,-0.53662 -0.062,-1.98327 -2.04841,-3.41278 -2.08441,-1.5 -0.008,0.4125 -1.76276,2.68864 -3.9,5.05809 -2.79491,3.09859 -3.8881,5.20422 -3.89377,7.5 -0.004,1.75555 -0.098,3.64191 -0.20816,4.19191 -0.32579,1.62686 1.17606,5.5 2.13268,5.5 0.48585,0 0.9189,-0.7875 0.96232,-1.75 0.0496,-1.09906 0.27065,-1.27277 0.59433,-0.46701 0.28346,0.70564 0.17996,2.05564 -0.22999,3 -1.31737,3.03465 -1.46297,4.62256 -0.86216,9.40299 0.43915,3.49419 0.9502,4.54736 2.00935,4.14092 0.94289,-0.36182 1.99277,0.75231 3.12288,3.31402 l 1.70246,3.85908 0.56325,-4 0.56325,-4 1.14989,3 c 0.63244,1.65 1.18542,2.4375 1.22884,1.75 0.0434,-0.6875 0.79304,-1.25 1.66581,-1.25 0.87278,0 2.09644,-1.35 2.71924,-3 0.65344,-1.73116 1.85963,-3 2.85186,-3 1.26741,0 1.89426,-1.16543 2.38422,-4.43271 0.3656,-2.43799 1.29317,-4.67387 2.06127,-4.96862 0.7681,-0.29474 1.39655,-1.22502 1.39655,-2.06729 0,-0.84226 0.66643,-1.53138 1.48095,-1.53138 1.46263,0 2.85024,-3.42837 2.47526,-6.11565 -0.10625,-0.76139 -0.13986,-2.40542 -0.0747,-3.6534 0.10212,-1.95566 0.4983,-2.17668 2.86848,-1.60026 2.6751,0.65057 2.70233,0.6149 1,-1.30969 -0.9625,-1.08817 -1.73569,-2.84305 -1.7182,-3.89974 0.0308,-1.86345 0.08,-1.86108 1.63454,0.0787 1.40848,1.75761 1.52582,1.77799 0.96819,0.16821 -0.34898,-1.00748 -0.63452,-3.59939 -0.63452,-5.75978 0,-2.66919 -0.63067,-4.468 -1.96794,-5.61301 -1.08236,-0.92675 -2.24833,-3.55478 -2.59103,-5.84007 -0.702,-4.68127 -4.24709,-9.16906 -11.75088,-14.87565 -5.40855,-4.11317 -15.14965,-8.74661 -16.27307,-7.74044 -0.40575,0.36341 -0.41403,0.0982 -0.0184,-0.58926 0.41514,-0.72139 0.16578,-1.28769 -0.58967,-1.33911 -5.05088,-0.34385 -8.98961,-0.01 -10.05766,0.85247 -0.68825,0.55578 -3.26653,1.34329 -5.72952,1.75002 -7.16736,1.1836 -8.84602,2.76905 -15.33825,14.48662 -1.06657,1.925 -2.5567,4.38763 -3.3114,5.47251 -1.84675,2.65468 -1.76051,4.42315 0.096,1.96862 0.90553,-1.19722 1.48038,-1.43947 1.5,-0.63211 0.0175,0.71996 0.5943,1.02317 1.2818,0.67381 0.6875,-0.34936 0.19063,0.29667 -1.10416,1.43562 -1.29479,1.13896 -2.73813,1.83353 -3.20742,1.54349 -0.99571,-0.61538 -4.13879,5.00436 -3.27949,5.86366 0.31854,0.31854 -0.14941,1.30773 -1.03988,2.19821 -0.89046,0.89048 -1.61903,2.49181 -1.61903,3.55852 0,2.69159 -3.72875,10.36222 -6.06487,12.47638 -2.08026,1.88261 -2.56093,4.93649 -0.93513,5.94129 1.51136,0.93407 1.19817,2.5 -0.5,2.5 -0.825,0 -1.5,0.47656 -1.5,1.05902 0,0.58246 0.5625,0.72108 1.25,0.30804 0.7692,-0.46212 0.69328,-0.0654 -0.19739,1.03128 -1.38814,1.70931 -1.5007,1.70935 -2.75,8.3e-4 -1.57427,-2.15294 -1.6766,-4.62518 -0.25047,-6.05131 1.54019,-1.54019 -2.37262,-7.56212 -9.73214,-14.97802 -14.59609,-14.70791 -35.20886,-18.44814 -50.8407,-9.22512 -5.52588,3.26035 -14.36079,1.65583 -25.36439,-4.60646 -2.96814,-1.68921 -4.0799,-3.39451 -4.09959,-6.28826 -0.008,-1.2375 -0.49187,-2.25 -1.07433,-2.25 -0.58246,0 -0.75417,-0.49326 -0.38157,-1.09613 0.42256,-0.68372 -0.0255,-0.95149 -1.19099,-0.71169 -1.02763,0.21145 -1.80593,1.15471 -1.72954,2.09613 0.0764,0.94143 -0.26111,1.71169 -0.749997,1.71169 -0.48889,0 -0.88889,-0.708 -0.88889,-1.57332 0,-2.99646 -3.48283,-1.08483 -3.79299,2.08187 -0.16115,1.6453 -0.57009,3.66645 -0.90876,4.49145 -0.33867,0.825 -0.53302,1.87141 -0.43188,2.32536 0.10113,0.45395 -0.65817,0.55811 -1.68733,0.23146 -1.27126,-0.40348 -3.52367,0.72181 -7.02512,3.50971 -2.83466,2.25698 -5.15392,4.44371 -5.15392,4.8594 0,0.41569 -1.83561,2.62841 -4.07915,4.91715 l -4.07915,4.16136 3.2992,3.49778 c 1.81456,1.92378 4.10628,3.49778 5.09272,3.49778 0.98644,0 2.70115,0.5625 3.81047,1.25 1.41043,0.87412 2.23329,0.92736 2.73643,0.17706 0.97558,-1.45484 4.21948,-2.5842 4.21948,-1.469 0,0.49241 -0.7875,1.0844 -1.75,1.31554 -0.9625,0.23114 1.01752,0.20571 4.40005,-0.0565 5.95116,-0.46133 6.2009,-0.38362 7.722837,2.40307 l 1.57281,2.87983 -0.48207,-3.5 -0.48206,-3.5 1.58142,3.41991 c 0.86977,1.88095 1.36262,4.25658 1.09521,5.27917 -0.26742,1.02259 -0.0444,5.04719 0.49552,8.94355 0.89028,6.42438 0.79983,7.28331 -0.97106,9.22083 -1.07403,1.1751 -2.26854,3.17647 -2.65446,4.4475 -0.38591,1.27102 -1.787627,2.80576 -3.114927,3.41051 -1.3273,0.60476 -2.41327,1.70233 -2.41327,2.43905 0,1.7208 -1.9007,1.7167 -3.92125,-0.008 -2.56225,-2.18813 -18.7098,-5.45117 -36.57875,-7.39216 -6.36281,-0.69115 -7.03077,-0.97798 -7.338,-3.15112 -0.27827,-1.96832 -0.0132,-2.26468 1.5,-1.67723 3.44705,1.33816 12.53211,2.70748 14.06378,2.11972 0.84024,-0.32243 2.03318,-0.17676 2.65097,0.32371 0.61779,0.50047 3.14825,1.13178 5.62325,1.40291 2.475,0.27113 8.86015,1.21579 14.18921,2.09925 10.251,1.69942 12.81079,1.44724 12.81079,-1.26208 0,-0.91878 0.78386,-2.78314 1.741887,-4.14301 3.78932,-5.37871 0.32913,-18.98492 -5.179657,-20.36753 -2.6865,-0.67427 -5.81172,0.18231 -5.0662,1.38858 0.79858,1.29214 -6.72122,-0.095 -9.15309,-1.68843 -1.24024,-0.81264 -2.73138,-1.18309 -3.31365,-0.82323 -1.41185,0.87258 -9.02929,-7.38096 -9.02929,-9.78329 0,-2.25286 2.97545,-6.77572 7.90687,-12.01893 l 3.59313,-3.82031 -3,0.63343 c -2.53704,0.53569 -2.71736,0.45467 -1.16847,-0.52499 1.00734,-0.63714 2.62746,-0.95029 3.60029,-0.69589 0.97282,0.25439 2.84863,-0.36771 4.16847,-1.38245 3.04697,-2.34263 1.9228,-2.33738 -5.85319,0.0274 -13.55299,3.38273 2.25178,-2.44179 6.468,-2.78273 0.9817,0.14942 3.01006,-0.0501 4.50747,-0.44339 2.32356,-0.61027 2.64421,-1.11631 2.18791,-3.4529 -0.78665,-4.02818 1.59557,-6.47539 7.62543,-7.83343 5.067587,-1.14132 5.349827,-1.09123 7.613387,1.35119 1.29289,1.39505 2.3507,3.60539 2.3507,4.91187 0,1.6363 0.85567,2.74557 2.75,3.56505 1.5125,0.6543 3.9467,2.15626 5.40933,3.3377 1.48631,1.20057 4.8848,2.44329 7.70468,2.81736 4.18066,0.55459 5.86721,0.25953 9.84068,-1.72157 7.10034,-3.5401 10.15056,-4.31621 17.84034,-4.53937 3.82523,-0.11101 7.85497,-0.43939 8.95497,-0.72974 1.625,-0.42892 1.71875,-0.33099 0.5,0.52229 -1.2415,0.86921 -1.11717,1.05283 0.72149,1.06551 1.22181,0.008 4.79564,1.15372 7.94183,2.54512 3.6595,1.6184 6.82211,2.3609 8.77852,2.06096 2.85849,-0.43824 2.93142,-0.3749 1.11703,0.97019 -1.06762,0.79147 -1.47042,1.43904 -0.89512,1.43904 0.57531,0 3.12954,2.025 5.67607,4.5 2.54654,2.475 5.0467,4.5 5.55592,4.5 0.50921,0 1.93366,2.08187 3.16543,4.62637 l 2.23959,4.62636 1.82738,-2.37636 c 1.00507,-1.30701 1.83739,-2.9957 1.84962,-3.75266 0.0122,-0.75697 1.39673,-4.08112 3.07666,-7.387 1.67993,-3.30589 2.78969,-6.70058 2.46613,-7.54376 -0.32356,-0.84318 -0.23555,-1.79403 0.19558,-2.113 0.43113,-0.31897 1.68387,-2.34686 2.78387,-4.50643 1.1,-2.15956 2.60364,-4.53105 3.34142,-5.26999 0.73778,-0.73893 1.4231,-1.90007 1.52294,-2.5803 0.0998,-0.68024 0.9587,-2.34637 1.90858,-3.70252 0.94988,-1.35615 1.72706,-2.94031 1.72706,-3.52036 0,-1.73803 5.70497,-7.43768 8.51337,-8.50543 1.43926,-0.54721 3.68039,-0.99492 4.9803,-0.99492 1.29991,0 3.03847,-0.675 3.86347,-1.5 0.825,-0.825 2.9087,-1.5 4.63045,-1.5 2.24854,0 2.91342,-0.35215 2.3601,-1.25 -0.45272,-0.73462 0.24666,-0.58507 1.69629,0.36272 1.41253,0.92354 3.74639,1.43757 5.46132,1.20286 2.17966,-0.29831 3.79442,0.29106 5.93309,2.16551 1.61612,1.41646 4.09112,2.85536 5.5,3.19757 1.40889,0.34221 4.03977,1.90451 5.84641,3.47177 1.80663,1.56726 4.01913,2.84957 4.91666,2.84957 0.89753,0 1.35089,0.28098 1.00746,0.62441 -0.67988,0.67989 5.80989,7.37559 7.14876,7.37559 1.26013,0 3.14232,4.75594 3.14232,7.94006 0,1.56528 0.63015,3.08777 1.40034,3.38332 1.51773,0.58241 2.24914,4.2138 3.08999,15.34156 0.50286,6.6548 0.37415,7.2965 -1.80779,9.01282 -1.59705,1.25623 -2.34921,2.87932 -2.34921,5.06937 0,2.49225 -1.05639,4.29299 -4.66666,7.95488 -3.05742,3.10112 -4.67195,5.60662 -4.68198,7.26568 -0.0195,3.22265 -1.43511,5.49 -2.87289,4.60141 -0.63953,-0.39526 -1.1118,-0.005 -1.1118,0.91963 0,1.82772 -4.86535,6.71252 -5.99216,6.01612 -0.4073,-0.25173 -1.55345,0.44056 -2.547,1.53842 -1.18624,1.31078 -2.87931,1.92385 -4.93132,1.78566 -2.55157,-0.17184 -3.16307,-0.67188 -3.33303,-2.72553 -0.26974,-3.25915 -2.19649,-5.33145 -2.19649,-2.36242 0,3.06576 -1.48969,3.57427 -5.06088,1.72754 -2.68356,-1.38772 -3.02301,-1.9875 -2.42846,-4.29087 1.16563,-4.51583 1.46857,-15.07245 0.45059,-15.7016 -0.52869,-0.32675 -0.96125,0.10747 -0.96125,0.96493 0,0.85746 -0.45,1.55902 -1,1.55902 -1.25967,0 -1.26625,-2.49947 -0.0184,-7 0.53373,-1.925 1.19372,-5.25076 1.46666,-7.39058 0.27293,-2.13982 1.18374,-4.65025 2.02401,-5.57874 0.84024,-0.92849 1.52773,-2.21523 1.52773,-2.85942 0,-0.64419 0.43417,-1.17126 0.96482,-1.17126 1.15442,0 3.41725,-3.95127 2.6832,-4.68531 -1.07561,-1.07561 -7.26401,1.79937 -9.91031,4.60408 -1.51925,1.61021 -3.51378,5.25453 -4.43228,8.09849 -1.22049,3.77902 -2.34717,5.42831 -4.1858,6.12736 -1.38369,0.52607 -4.07027,2.55708 -5.97017,4.51335 -4.06746,4.18813 -8.94794,7.33305 -11.38803,7.33829 -2.23137,0.005 -5.704,2.89377 -6.78717,5.64642 -1.10503,2.80819 -0.17907,6.1573 1.88371,6.81318 1.15441,0.36706 1.73281,1.93085 1.94772,5.26592 0.16813,2.60909 0.90886,5.42655 1.64608,6.26101 1.77165,2.00535 2.57721,9.58823 1.16827,10.99717 -2.0337,2.0337 1.61189,3.1409 8.85555,2.6895 5.64221,-0.35161 7.20393,-0.12263 8.17018,1.19792 l 12.85423,2.95224 c 3.15724,-0.01 6.21767,-0.0875 8.89465,1.70542 0.69512,0.95064 3.18484,1.66096 6.61024,1.8859 3.02231,0.19847 7.29511,1.14641 9.49511,2.10653 2.2,0.96011 5.575,1.87909 7.5,2.04216 5.56959,0.47183 26.59121,3.84111 27.04351,4.29342 1.10572,1.10572 -22.53302,-1.39436 -24.66432,-2.50009 l 0,10e-6 0,4e-5 z m -94.50302,-14.36244 c -1.97268,-1.15248 -5.87918,-1.47813 -11.87617,-0.99002 -3.6645,0.29827 -3.01468,0.48384 3.5,0.99951 4.4,0.34828 8.45,0.70208 9,0.78621 0.55,0.0841 0.26927,-0.27393 -0.62383,-0.7957 z m -36.87617,-10.82153 c 0,-0.45706 -1.2375,-1.44906 -2.75,-2.20445 -1.5125,-0.75538 -3.74945,-2.2476 -4.971,-3.31605 -1.54639,-1.35257 -4.0176,-2.03035 -8.13589,-2.23146 -5.10015,-0.24905 -6.21427,0.0298 -8.08829,2.02464 l -2.1734,2.31347 4.55635,0.68327 c 2.506,0.37579 5.00768,0.40433 5.5593,0.0634 0.55161,-0.3409 1.00293,-0.14832 1.00293,0.42798 0,0.5763 1.0125,1.04167 2.25,1.03416 1.2375,-0.008 4.275,0.39121 6.75,0.88604 2.475,0.49483 4.8375,0.95601 5.25,1.02485 0.4125,0.0688 0.75,-0.24879 0.75,-0.70585 z m -17.6087,-13.59166 c -0.30026,-0.78248 -1.27341,-1.70184 -2.16255,-2.04304 -1.32812,-0.50964 -1.28666,-0.25575 0.23231,1.42269 2.1782,2.40688 2.67736,2.5673 1.93024,0.62035 z m 118.53841,-5.02733 c 0.043,-1.80645 -0.28401,-2.58174 -0.8437,-2 -0.91325,0.94924 -1.46804,4.61852 -1.12642,7.45 0.28939,2.39858 1.88853,-2.02515 1.97012,-5.45 z m -41.43679,-9.53855 c 0.35034,-0.56686 -0.0511,-0.7345 -0.94098,-0.39301 -1.73242,0.66479 -2.04939,1.38156 -0.61096,1.38156 0.51754,0 1.21592,-0.44485 1.55194,-0.98855 z m -34.40224,45.06575 c -0.77512,-0.49069 -1.97541,-0.67494 -2.66731,-0.40943 -0.6919,0.26551 -2.53271,-0.2456 -4.09069,-1.13579 l -2.83268,-1.61852 5,0.61503 c 6.97535,0.85801 9.5,1.54362 9.5,2.57991 0,1.14571 -3.08114,1.12612 -4.90932,-0.0312 z m 5.90932,-0.0772 c 0,-0.55 0.45,-1 1,-1 0.55,0 1,0.45 1,1 -0.66518,1.4389 -1.27629,1.00271 -2,0 z m -65.41248,-4.74582 c -0.73692,-0.73692 -13.101767,-3.37388 -17.587517,-3.75076 -1.925,-0.16174 -5.6375,-0.61726 -8.25,-1.01228 -6.83181,7.7479 0.0368,0.0306 -12.09634,-1.9427 -2.82129,-0.37425 -6.55273,-1.35577 -8.29208,-2.18115 -1.73936,-0.82538 -3.76977,-1.39568 -4.51202,-1.26733 -2.7992,0.48403 -13.84956,-2.52802 -13.84956,-3.77504 0,-1.34089 4.56732,-0.97615 8.5,0.6788 1.1,0.4629 4.61858,1.07213 7.81907,1.35384 3.20049,0.2817 6.35049,0.92905 7,1.43855 0.64951,0.5095 2.98093,1.25308 5.18093,1.65239 2.2,0.39932 5.9125,1.06542 8.25,1.48023 2.3375,0.41481 4.25,0.37554 4.25,-0.0873 0,-0.46277 -1.07324,-0.84143 -2.38499,-0.84143 -1.4405,0 -3.03368,-0.99003 -4.02305,-2.5 -0.90093,-1.375 -2.19019,-2.49311 -2.86501,-2.48469 -0.79987,0.01 -0.71491,0.33914 0.24409,0.94563 0.80908,0.51167 1.20015,1.20121 0.86905,1.53231 -0.33109,0.33109 -1.37062,-0.16664 -2.31005,-1.10607 -2.5638,-2.5638 0.27883,-3.7809 4.61692,-1.97676 1.84418,0.76696 5.94054,1.71522 9.10304,2.10725 4.80784,0.59599 5.75,0.46177 5.75,-0.81911 0,-0.84254 0.5606,-1.71876 1.24576,-1.94715 0.68517,-0.22839 1.275057,-1.05339 1.310867,-1.83333 0.0358,-0.77994 0.88954,-3.21808 1.89719,-5.41808 2.30104,-5.02388 3.29561,-2.83027 1.14909,2.53442 -0.87269,2.18107 -1.25286,3.98055 -0.84481,3.99885 0.40805,0.0183 -0.34761,0.94029 -1.67923,2.04887 l -2.421127,2.01559 2.159877,0.56483 c 1.18794,0.31065 1.93049,0.936 1.6501,1.38967 -0.28038,0.45367 0.28718,1.2909 1.26125,1.86052 1.2999,0.76016 -0.22412,0.93747 -5.728967,0.66653 -6.57899,-0.32381 -6.88599,-0.26827 -2.5,0.45227 2.75,0.45178 7.924997,1.56308 11.499997,2.46956 3.575,0.90648 7.92864,1.60274 9.67476,1.54726 1.74611,-0.0555 3.49625,0.41931 3.88919,1.0551 0.44282,0.7165 0.18629,0.9751 -0.67475,0.68018 -0.76406,-0.26169 -2.59282,-0.1362 -4.06392,0.27888 -1.4711,0.41507 -2.92809,0.50132 -3.23776,0.19165 z m -15.856547,-8.94717 c -0.97296,-0.25354 -2.32296,-0.23687 -3,0.0371 -0.67703,0.27393 0.11903,0.48137 1.76903,0.46099 1.65,-0.0204 2.20394,-0.2445 1.23097,-0.49804 l 0,-5e-5 z m -6.48097,-0.96929 c -0.6875,-0.27741 -1.8125,-0.27741 -2.5,0 -0.6875,0.27741 -0.125,0.50439 1.25,0.50439 1.375,0 1.9375,-0.22698 1.25,-0.50439 z m 22.249997,4.59449 c -2.73025,-1.74886 -2.80085,-1.92211 -0.78518,-1.92691 1.21815,-0.003 2.69648,0.89474 3.28518,1.99474 1.26972,2.37249 1.31154,2.37362 -2.5,-0.0678 l 0,-3e-5 z m 50,-8.93217 c -0.33992,-0.55 0.0835,-1 0.94098,-1 0.85746,0 1.55902,0.45 1.55902,1 0,0.55 -0.42344,1 -0.94098,1 -0.51754,0 -1.2191,-0.45 -1.55902,-1 z m 14.14765,-0.95353 c 2.13656,-1.43444 2.99497,-2.69709 2.67235,-3.93079 -0.47062,-1.79967 1.96107,-5.11568 3.75143,-5.11568 1.3438,0 1.14308,0.92835 -0.57143,2.64286 -2.21465,2.21465 -1.82803,4.05799 1,4.76778 3.52402,0.88448 3.10639,2.07895 -0.75,2.14513 -1.7875,0.0307 -4.6,0.40411 -6.25,0.82986 l -3,0.7741 3.14765,-2.11326 z m 12.85235,-0.0465 c -0.33992,-0.55 -0.14148,-1 0.44098,-1 0.58246,0 1.05902,0.45 1.05902,1 0,0.55 -0.19844,1 -0.44098,1 -0.24254,0 -0.7191,-0.45 -1.05902,-1 z m -41.0573,-1.41824 c -1.06675,-0.78003 -1.70854,-1.64925 -1.42619,-1.93161 0.28236,-0.28235 1.63165,0.34585 2.99843,1.39601 2.84655,2.18711 1.37289,2.68913 -1.57224,0.5356 z m -38.38204,-1.15485 c 0.71805,-0.8652 3.02594,-2.45076 5.12864,-3.52348 2.1027,-1.07272 4.37855,-2.83983 5.05744,-3.92691 1.55617,-2.49181 2.75326,-2.53484 2.75326,-0.099 0,2.24606 -1.21265,3.33048 -7.40787,6.62452 -5.4364,2.89055 -7.44104,3.22572 -5.53147,0.92483 l 0,4e-5 z m 44.19557,-0.17621 c 0.41593,-0.23183 0.5596,-0.73967 0.31928,-1.12852 -0.24033,-0.38886 0.43187,-0.77246 1.49377,-0.85245 1.0619,-0.08 1.93072,0.2766 1.93072,0.79242 0,0.51582 -0.4132,0.93785 -0.91821,0.93785 -0.50502,0 -1.51752,0.15125 -2.25,0.3361 -0.73249,0.18486 -0.99149,0.14643 -0.57556,-0.0854 z m 15.74377,-1.27216 c 0,-1.46745 4.58836,-3.3505 6.43623,-2.6414 0.86007,0.33004 1.56377,1.11929 1.56377,1.7539 0,0.82497 -0.43287,0.79458 -1.51876,-0.10663 -1.23815,-1.02757 -1.85317,-0.95782 -3.32874,0.37756 -2.07382,1.87678 -3.1525,2.08775 -3.1525,0.61657 z m 19.33333,-2.47856 c 0,-0.825 0.375,-1.5 0.83334,-1.5 0.45833,0 0.83333,0.675 0.83333,1.5 0,0.825 -0.375,1.5 -0.83333,1.5 -0.45834,0 -0.83334,-0.675 -0.83334,-1.5 z m -75.47254,-1.53327 c 1.29843,-1.0817 2.87343,-1.95176 3.5,-1.93346 0.62657,0.0183 0.0769,0.9183 -1.22157,2 -1.29843,1.0817 -2.87343,1.95176 -3.5,1.93346 -0.62657,-0.0183 -0.0769,-0.9183 1.22157,-2 z m -6.86079,0.18826 c 0,-1.44341 3.36888,-3.96644 6.25945,-4.68786 1.5177,-0.37878 3.00676,-1.08884 3.30902,-1.57791 0.30226,-0.48907 1.22037,-0.88922 2.04024,-0.88922 3.06108,0 -0.37365,3.45239 -3.59595,3.61445 -1.75663,0.0883 -4.02451,1.09441 -5.12164,2.27205 -2.11453,2.26968 -2.89112,2.61041 -2.89112,1.26849 z m 71,-2.12361 c 0,-0.53273 0.675,-0.70959 1.5,-0.39301 0.825,0.31659 1.5,0.75246 1.5,0.96862 0,0.21615 -0.675,0.39301 -1.5,0.39301 -0.825,0 -1.5,-0.43588 -1.5,-0.96862 z m -0.81565,-3.89628 c -1.13623,-0.72051 -4.18435,-5.63716 -4.18435,-6.74941 0,-1.39312 1.99178,0.0131 2.56163,1.80849 0.38302,1.2068 1.65085,2.99183 2.81739,3.96673 2.14002,1.78846 1.24298,2.51995 -1.19467,0.97419 z m -44.68661,-3.13877 c -0.34117,-0.55202 -1.71773,-0.72824 -3.05902,-0.39159 -1.88479,0.47305 -2.43872,0.21703 -2.43872,-1.12717 0,-1.42924 0.62387,-1.63802 3.5,-1.17128 1.925,0.31238 3.5,0.19353 3.5,-0.26413 0,-1.23473 -8.29862,-1.88405 -9.75,-0.76288 -0.82326,0.63596 -1.25,0.59938 -1.25,-0.10715 0,-0.59001 0.74453,-1.4894 1.6545,-1.99865 1.0079,-0.56405 1.4075,-1.56953 1.0225,-2.57283 -0.52298,-1.36287 -0.30051,-1.46953 1.28982,-0.61841 1.05699,0.56568 2.19842,1.4761 2.53651,2.02314 0.33809,0.54704 1.60065,1.00893 2.80569,1.02642 1.20504,0.0175 3.09098,0.75303 4.19098,1.63454 1.53548,1.23047 1.60537,1.46718 0.30093,1.01912 -1.22366,-0.42031 -1.53731,-0.16207 -1.12096,0.92294 0.31797,0.8286 1.19505,1.2698 1.94908,0.98046 0.75402,-0.28935 1.37095,-0.1427 1.37095,0.32589 0,0.46859 -1.0125,1.12333 -2.25,1.45496 -3.07567,0.82425 -3.53713,0.78373 -4.25226,-0.37338 z m 55.1908,0.25367 c -0.23623,-0.4125 -0.3026,-1.5375 -0.14751,-2.5 0.1551,-0.9625 -0.0318,-1.75 -0.41523,-1.75 -1.12906,0 -0.79674,-3.99352 0.33849,-4.06749 0.56964,-0.0371 2.42791,-0.25063 4.12948,-0.47448 1.70158,-0.22384 3.95087,0.21974 4.99843,0.98573 2.29736,1.67987 1.28748,3.14791 -1.20569,1.75267 -1.36821,-0.76569 -2.16953,-0.4707 -3.575,1.31606 -2.20445,2.80251 -2.29267,3.60938 -0.31151,2.84914 0.825,-0.31659 1.5,-0.12561 1.5,0.42439 0,1.69835 -4.47147,2.9308 -5.31146,1.46398 z m 71.50641,-6.75 c -0.0204,-1.65 0.18706,-2.44606 0.46099,-1.76903 0.27392,0.67703 0.29059,2.02703 0.0371,3 -0.25354,0.97297 -0.47766,0.41903 -0.49804,-1.23097 l -5e-5,0 z m -5.116,-0.91667 c -0.0434,-1.05416 0.19292,-1.64479 0.52522,-1.3125 0.33229,0.3323 0.36781,1.1948 0.0789,1.91667 -0.31922,0.79773 -0.55618,0.56078 -0.60416,-0.60417 l 4e-5,0 z m 10.92105,-0.14235 c 0,-0.85746 0.45,-1.2809 1,-0.94098 0.55,0.33992 1,1.04148 1,1.55902 0,0.51754 -0.45,0.94098 -1,0.94098 -0.55,0 -1,-0.70156 -1,-1.55902 z m -148,-2.32295 c 0,-0.55 0.45,-1.27811 1,-1.61803 0.55,-0.33992 1,-0.16803 1,0.38197 0,0.55 -0.45,1.27811 -1,1.61803 -0.55,0.33992 -1,0.16803 -1,-0.38197 z m 84.05533,0.13197 c 0.0815,-1.10476 5.94467,-5.55749 5.94467,-4.51462 0,1.22815 -3.86345,5.26462 -5.03896,5.26462 -0.52857,0 -0.93614,-0.3375 -0.90571,-0.75 z m 53.96034,-3.24031 c -1.0886,-0.6728 -1.14695,-1.36109 -0.26993,-3.18402 l 1.1189,-2.32567 0.0677,2.30902 c 0.0373,1.2723 0.51666,2.03153 1.06768,1.69098 0.55,-0.33992 1,-0.16803 1,0.38197 0,1.5359 -1.44212,2.08085 -2.98433,1.12772 l -2e-5,0 z m -119.01567,-1.00969 c 0,-0.55 0.19845,-1 0.44099,-1 0.24254,0 0.7191,0.45 1.05901,1 0.33992,0.55 0.14148,1 -0.44098,1 -0.58246,0 -1.05902,-0.45 -1.05902,-1 z m 67,-2.93191 c 0,-0.51254 1.35529,-1.89695 3.01176,-3.07646 1.65646,-1.17951 2.75329,-2.56278 2.43738,-3.07393 -0.31591,-0.51115 0.009,-2.54321 0.72245,-4.51568 1.14734,-3.1729 1.09692,-3.73251 -0.43738,-4.85442 -2.81049,-2.05508 -1.98311,-2.59743 1.18696,-0.77806 1.60665,0.92209 2.70509,2.02616 2.44099,2.45349 -0.26411,0.42734 0.0515,0.77697 0.70127,0.77697 0.9004,0 0.90451,0.3337 0.0173,1.40275 -0.89396,1.07715 -0.86435,1.52424 0.12755,1.92612 0.92434,0.3745 0.66904,1.0421 -0.89763,2.34724 -1.20416,1.00314 -2.48292,3.03143 -2.8417,4.50732 -0.40013,1.64599 -1.15768,2.4895 -1.95948,2.18182 -0.71893,-0.27588 -1.60422,-0.0209 -1.96732,0.56658 -0.81273,1.315 -2.54215,1.4077 -2.54215,0.13626 z m 61.62194,-0.89345 c -0.44251,-1.27895 -0.53846,-2.59145 -0.21325,-2.91667 1.03661,-1.03661 1.76525,0.49191 1.38536,2.90617 l -0.36756,2.33586 -0.80455,-2.32536 z m -5.48576,-0.34284 c -0.0749,-0.91752 -0.42741,-2.49252 -0.78336,-3.5 -0.49958,-1.41403 -0.36624,-1.57302 0.58467,-0.69713 0.67751,0.62407 1.03002,2.19907 0.78336,3.5 -0.24667,1.30094 -0.50977,1.61464 -0.58467,0.69713 z m -11.06589,-1.52277 c -0.0387,-1.20504 0.33256,-2.43996 0.82493,-2.74426 0.97644,-0.60348 2.48014,2.39321 1.62832,3.24504 -0.28795,0.28794 -0.55517,-0.11397 -0.59383,-0.89313 -0.0415,-0.83669 -0.42213,-0.59788 -0.92971,0.58333 -0.82859,1.92824 -0.86195,1.92138 -0.92971,-0.19098 z M 77.918183,531.02028 c -3.66193,-3.62294 -2.92939,-4.48173 1.11155,-1.30313 1.39842,1.1 3.00755,2 3.57584,2 1.85839,0 2.17231,1.76219 0.39004,2.18944 -1.02452,0.2456 -3.1102,-0.94002 -5.07743,-2.88631 z m 19.33867,2.69687 c 2.752487,-1.18278 3.730997,-1.18278 2.999997,0 -0.339907,0.55 -1.603967,0.96837 -2.809007,0.92972 -2.11237,-0.0678 -2.11922,-0.10113 -0.19099,-0.92972 z m 52.499997,0.10016 c 0,-0.92226 5.82115,-3.62381 6.4314,-2.98476 0.202,0.21153 -1.16243,1.16258 -3.03207,2.11344 -1.86963,0.95086 -3.39933,1.34295 -3.39933,0.87132 z m 110.66667,-0.76683 c -0.36667,-0.36666 -0.66667,-1.13166 -0.66667,-1.7 0,-0.6266 0.46577,-0.56756 1.18333,0.15 0.65084,0.65084 0.95084,1.41584 0.66667,1.7 -0.28417,0.28417 -0.81667,0.21667 -1.18333,-0.15 z M 268.923,532.841 c -1.08371,-0.68696 -1.05054,-0.95424 0.17689,-1.42525 0.8309,-0.31884 2.04873,0.0685 2.70629,0.86084 0.94216,1.13524 0.90467,1.43731 -0.17689,1.42525 -0.75484,-0.008 -1.97267,-0.3958 -2.70629,-0.86084 z m 5.0288,-2.62385 c -0.0204,-1.65 0.18706,-2.44606 0.46099,-1.76903 0.27392,0.67703 0.29059,2.02703 0.0371,3 -0.25359,0.97297 -0.47771,0.41903 -0.49809,-1.23097 z m -192.467817,-0.5 c -1.39842,-1.1 -2.98596,-2 -3.52787,-2 -0.5419,0 -1.26353,-0.7251 -1.60361,-1.61134 -0.40433,-1.05367 -0.18179,-1.44009 0.64301,-1.11652 6.32204,2.48013 9.76134,4.40523 9.76134,5.46376 0,1.86905 -2.38424,1.53629 -5.27287,-0.7359 z m 9.60621,-1.54399 c 0,-0.80081 0.375,-1.45601 0.83333,-1.45601 0.45833,0 0.83333,0.42344 0.83333,0.94098 0,0.51754 -0.375,1.17275 -0.83333,1.45601 -0.45833,0.28327 -0.83333,-0.14017 -0.83333,-0.94098 z m 123.681967,0.79399 c 0.028,-1.36867 1.86631,-3.70172 2.45386,-3.11417 0.78775,0.78775 -0.46709,3.86417 -1.57616,3.86417 -0.49115,0 -0.88612,-0.3375 -0.8777,-0.75 z m -128.515307,-2.25 c -0.33991,-0.55 0.33509,-1 1.5,-1 1.16492,0 1.83992,0.45 1.5,1 -0.33991,0.55 -1.01491,1 -1.5,1 -0.48508,0 -1.16008,-0.45 -1.5,-1 z m 182.166667,0.33333 c -0.36667,-0.36666 -0.66667,-1.13166 -0.66667,-1.7 0,-0.6266 0.46577,-0.56756 1.18333,0.15 0.65084,0.65084 0.95084,1.41584 0.66667,1.7 -0.28417,0.28417 -0.81667,0.21667 -1.18333,-0.15 z M 84.006853,523.59837 c -3.71957,-1.07399 -4.12933,-3.00189 -1.25,-5.88122 2.2828,-2.2828 4.07061,-2.52939 5.8,-0.8 1.73739,1.73739 1.47251,4.52973 -0.55,5.79806 -1.47133,0.92269 -1.3519,0.99979 0.75,0.48418 1.9292,-0.47323 2.15752,-0.37347 1,0.43694 -1.71412,1.20011 -1.45625,1.20181 -5.75,-0.038 l 0,4e-5 z m 139.749997,0.6778 c 0,-0.24254 0.45,-0.7191 1,-1.05902 0.55,-0.33992 1,-0.14148 1,0.44098 0,0.58246 -0.45,1.05902 -1,1.05902 -0.55,0 -1,-0.19844 -1,-0.44098 z m 49.25,-1.2213 c -1.43045,-0.5772 -1.6993,-2.33772 -0.35699,-2.33772 0.49116,0 1.15203,0.675 1.46862,1.5 0.31658,0.825 0.47722,1.46447 0.35699,1.42105 -0.12024,-0.0434 -0.78112,-0.30592 -1.46862,-0.58333 z m -62.85557,-4.52703 c 0.18142,-3.60727 2.34976,-4.88102 4.14038,-2.43219 1.07467,1.46969 1.34491,1.32609 2.42876,-1.29055 0.67075,-1.61933 1.85334,-3.18745 2.62799,-3.48471 0.77464,-0.29726 1.41533,-1.56709 1.42375,-2.82186 0.0121,-1.79775 0.21266,-1.96933 0.94621,-0.80941 0.79553,1.25795 1.0284,1.21789 1.60147,-0.27552 0.49857,-1.29927 1.00253,-1.472 1.96477,-0.67342 0.77761,0.64537 1.5248,0.70094 1.87196,0.13922 0.5292,-0.85625 -2.8874,-2.52453 -4.64972,-2.2704 -0.96096,0.13857 -0.8486,-1.83527 0.25,-4.39185 0.70617,-1.64336 0.87196,-1.6968 0.92971,-0.29969 0.10131,2.45069 2.99199,3.79249 5.60522,2.60182 1.88536,-0.85903 2.07126,-1.48716 1.4483,-4.89383 -0.39307,-2.14956 -0.32511,-3.9083 0.15104,-3.9083 0.47615,0 0.92198,1.125 0.99073,2.5 0.0687,1.375 0.2375,2.95 0.375,3.5 0.1375,0.55 0.30625,1.31101 0.375,1.69113 0.0687,0.38012 0.71,-0.10891 1.425,-1.08673 1.15626,-1.58128 1.3,-1.38473 1.3,1.77773 0,3.12295 -0.25787,3.49086 -2.1193,3.02367 -1.5517,-0.38945 -3.20748,0.55627 -6.18235,3.53114 -2.23468,2.23468 -4.5114,4.06306 -5.05938,4.06306 -0.89261,0 -2.01636,2.2487 -3.58338,7.17059 -0.67296,2.11373 -3.51436,1.74303 -5.29392,-0.69066 -1.16538,-1.59375 -1.36167,-1.62692 -1.36167,-0.23008 0,0.89767 -0.39703,1.8775 -0.88229,2.1774 -0.48526,0.29991 -0.81074,-0.87754 -0.72328,-2.61655 l 0,-10e-6 z m 64.60557,1.18931 c -0.5887,-1.1 -0.69453,-2 -0.23518,-2 1.06323,0 3.23518,2.14833 3.23518,3.2 0,1.55216 -1.94304,0.77494 -3,-1.2 z m -53,0.55902 c 0,-0.24254 0.45,-0.7191 1,-1.05902 0.55,-0.33992 1,-0.14148 1,0.44098 0,0.58246 -0.45,1.05902 -1,1.05902 -0.55,0 -1,-0.19844 -1,-0.44098 z m 2.5,-4.079 c 1.1,-0.801 3.2375,-2.66169 4.75,-4.13486 1.5125,-1.47317 3.04415,-2.38434 3.40366,-2.02483 0.95606,0.95606 -6.5008,7.68526 -8.47486,7.64787 -1.43114,-0.0271 -1.38376,-0.24665 0.3212,-1.48818 z m -117.86383,-0.98576 c -0.31537,-0.82185 -1.2484,-1.49426 -2.0734,-1.49426 -0.92249,0 -1.27838,-0.57751 -0.92439,-1.5 0.36449,-0.94984 -0.0138,-1.5 -1.03139,-1.5 -1.06938,0 -1.60699,-0.88146 -1.60699,-2.63486 l 0,-2.63486 2.02609,2.57575 c 1.11435,1.41666 2.91435,2.85768 4,3.20225 1.08565,0.34457 1.97391,1.46961 1.97391,2.50009 0,2.41246 -1.61799,3.42951 -2.36383,1.48589 z m 130.36383,-2.21683 c 0,-1.25825 2.85836,-3.7524 3.5303,-3.08047 0.26508,0.26508 -0.4208,1.29895 -1.52417,2.29749 -1.10337,0.99854 -2.00613,1.35088 -2.00613,0.78298 z m 28.5,-1.27743 c -0.35667,-0.5771 0.5699,-0.99352 2.19098,-0.98469 2.18111,0.0119 2.47372,0.232 1.30902,0.98469 -1.92129,1.24163 -2.73263,1.24163 -3.5,0 z m -4.31144,-2.03896 c -2.31466,-2.15643 -2.85616,-3.96104 -1.18856,-3.96104 0.55,0 1,0.52707 1,1.17126 0,0.64419 0.74474,1.99419 1.65499,3 2.23046,2.46463 1.25452,2.32473 -1.46643,-0.21022 z m -5.10961,-0.37771 c -0.0434,-1.05416 0.19292,-1.64479 0.52522,-1.3125 0.33229,0.33229 0.36781,1.19479 0.0789,1.91667 -0.31922,0.79773 -0.55618,0.56078 -0.60416,-0.60417 l 4e-5,0 z m -3.07895,-0.96088 c 0,-2.08263 -2.67758,-4.04961 -3.28633,-2.41419 -0.33552,0.90139 -0.70722,0.74259 -1.23003,-0.52548 -0.43733,-1.06076 -0.2487,-2.30957 0.45314,-3 0.92888,-0.91376 1.75514,-0.54462 3.63278,1.62298 2.49684,2.88242 3.20319,5.69424 1.43044,5.69424 -0.55,0 -1,-0.6199 -1,-1.37755 z m 11.08333,0.0182 c 1.17815,-1.016 6.02326,-1.62217 5.44144,-0.68076 -0.35354,0.57204 -1.81625,1.04008 -3.25045,1.04008 -1.43421,0 -2.42015,-0.1617 -2.19099,-0.35932 z m -48.08333,-6.08166 c 0,-0.24254 0.45,-0.7191 1,-1.05902 0.55,-0.33992 1,-0.14148 1,0.44098 0,0.58246 -0.45,1.05902 -1,1.05902 -0.55,0 -1,-0.19844 -1,-0.44098 z m 34,-1.59441 c -1.98874,-1.58377 -2.09099,-1.84584 -0.5,-1.28145 1.1,0.39021 3.125,1.29336 4.5,2.00699 2.1712,1.12688 2.23696,1.29541 0.5,1.28145 -1.1,-0.009 -3.125,-0.91199 -4.5,-2.00699 z m 15.17562,0.14297 c 1.44477,-0.52387 1.48838,-0.86247 0.31654,-2.45772 -0.7475,-1.01757 -1.85018,-1.54663 -2.4504,-1.17567 -0.60022,0.37096 -0.96766,0.14778 -0.81654,-0.49596 0.15113,-0.64374 -0.73772,-1.56269 -1.97522,-2.04211 -1.38385,-0.53612 -2.25,-0.49912 -2.25,0.0961 0,0.53228 -0.43588,0.96778 -0.96862,0.96778 -0.53273,0 -0.70959,-0.675 -0.39301,-1.5 1.16661,-3.04013 6.23135,-1.73309 11.09648,2.86364 l 4.61843,4.36363 -4.42664,-0.006 c -2.43465,-0.003 -3.67261,-0.27946 -2.75102,-0.61363 l 0,-6e-5 z m -26.50895,-0.77425 c -1.03185,-1.03185 -0.78659,-2.52548 0.30401,-1.85145 0.53388,0.32995 1.25303,-0.52503 1.59812,-1.89996 0.59493,-2.37041 3.4312,-5.71023 3.4312,-4.04038 0,1.39258 -3.36299,8.45846 -4.02578,8.45846 -0.35249,0 -0.94089,-0.3 -1.30755,-0.66667 z m 14.25682,-0.0833 c -0.0421,-0.4125 -0.22726,-1.5375 -0.41152,-2.5 -0.18425,-0.9625 0.0752,-1.75 0.57651,-1.75 0.50134,0 0.91152,0.45 0.91152,1 0,0.55 0.7301,1 1.62244,1 1.3288,0 1.39713,0.27149 0.37756,1.5 -1.325,1.59652 -2.94975,1.99261 -3.07651,0.75 z m -32.92349,-2.19098 c 0,-2.41457 0.55611,-2.65816 1.34934,-0.59105 0.30982,0.80739 0.13297,1.73395 -0.39301,2.05902 -0.52598,0.32507 -0.95633,-0.33551 -0.95633,-1.46797 z m 3.13832,-1.39235 c -0.8376,-1.00925 -0.74583,-1.33334 0.37756,-1.33334 0.81626,0 1.48412,0.6 1.48412,1.33334 0,0.73333 -0.1699,1.33333 -0.37756,1.33333 -0.20765,0 -0.87551,-0.6 -1.48412,-1.33333 z m 28.00492,-2.77611 c 1.766,-1.11899 3.85676,-1.12755 3.85676,-0.0153 0,0.48125 -1.17304,0.875 -2.60676,0.875 -1.83967,0 -2.20751,-0.25298 -1.25,-0.85969 z m -28.34517,-0.42583 c -1.23746,-1.23745 0.32523,-3.24525 2.15365,-2.7671 1.00241,0.26213 2.12491,-0.0126 2.49444,-0.61051 0.36953,-0.59792 1.16506,-1.08712 1.76784,-1.08712 0.60279,0 0.26712,0.91587 -0.74592,2.03527 -1.01304,1.11939 -2.40371,1.81967 -3.09038,1.55617 -0.68666,-0.2635 -1.39943,-0.0262 -1.58393,0.52724 -0.18449,0.55347 -0.63256,0.7092 -0.9957,0.34605 z m 6.70193,-1.46473 c 0.33992,-0.55 1.06803,-1 1.61803,-1 0.55,0 0.72189,0.45 0.38197,1 -0.33992,0.55 -1.06803,1 -1.61803,1 -0.55,0 -0.72189,-0.45 -0.38197,-1 z m 24.25,0.25399 c -0.9625,-0.22035 -1.75,-0.7695 -1.75,-1.22033 0,-1.37062 3.2656,-2.16806 4.36722,-1.06644 1.35746,1.35746 -0.31053,2.81485 -2.61722,2.28677 z m -12.75,-1.71881 c 0,-0.25565 1.0125,-1.00432 2.25,-1.66372 2.04022,-1.08712 2.12204,-1.04378 0.87756,0.46482 -1.27783,1.54902 -3.12756,2.25809 -3.12756,1.1989 z m -10.72917,-3.13935 c 0.33229,-0.33229 1.19479,-0.36782 1.91667,-0.0789 0.79773,0.31923 0.56078,0.55619 -0.60417,0.60417 -1.05416,0.0434 -1.64479,-0.19293 -1.3125,-0.52522 l 0,-5e-5 z"
         style="fill:#000000" />
    </g>
  </g>
</svg>
