<?xml version="1.0" encoding="UTF-8" standalone="no"?>
<!-- Created with Inkscape (http://www.inkscape.org/) -->
<svg
   xmlns:dc="http://purl.org/dc/elements/1.1/"
   xmlns:cc="http://creativecommons.org/ns#"
   xmlns:rdf="http://www.w3.org/1999/02/22-rdf-syntax-ns#"
   xmlns:svg="http://www.w3.org/2000/svg"
   xmlns="http://www.w3.org/2000/svg"
   xmlns:sodipodi="http://sodipodi.sourceforge.net/DTD/sodipodi-0.dtd"
   xmlns:inkscape="http://www.inkscape.org/namespaces/inkscape"
   width="744.09448819"
   height="1052.3622047"
   id="svg2"
   sodipodi:version="0.32"
   inkscape:version="0.46"
   sodipodi:docname="sunny-logo.svg"
   inkscape:output_extension="org.inkscape.output.svg.inkscape">
  <defs
     id="defs4">
    <inkscape:perspective
       sodipodi:type="inkscape:persp3d"
       inkscape:vp_x="0 : 526.18109 : 1"
       inkscape:vp_y="0 : 1000 : 0"
       inkscape:vp_z="744.09448 : 526.18109 : 1"
       inkscape:persp3d-origin="372.04724 : 350.78739 : 1"
       id="perspective10" />
    <inkscape:perspective
       id="perspective2447"
       inkscape:persp3d-origin="372.04724 : 350.78739 : 1"
       inkscape:vp_z="744.09448 : 526.18109 : 1"
       inkscape:vp_y="0 : 1000 : 0"
       inkscape:vp_x="0 : 526.18109 : 1"
       sodipodi:type="inkscape:persp3d" />
    <inkscape:perspective
       id="perspective2693"
       inkscape:persp3d-origin="372.04724 : 350.78739 : 1"
       inkscape:vp_z="744.09448 : 526.18109 : 1"
       inkscape:vp_y="0 : 1000 : 0"
       inkscape:vp_x="0 : 526.18109 : 1"
       sodipodi:type="inkscape:persp3d" />
  </defs>
  <sodipodi:namedview
     id="base"
     pagecolor="#ffffff"
     bordercolor="#666666"
     borderopacity="1.0"
     gridtolerance="10000"
     guidetolerance="10"
     objecttolerance="10"
     inkscape:pageopacity="0.0"
     inkscape:pageshadow="2"
     inkscape:zoom="0.7"
     inkscape:cx="208.48262"
     inkscape:cy="441.6207"
     inkscape:document-units="px"
     inkscape:current-layer="layer1"
     showgrid="false"
     inkscape:window-width="1017"
     inkscape:window-height="691"
     inkscape:window-x="0"
     inkscape:window-y="-3" />
  <metadata
     id="metadata7">
    <rdf:RDF>
      <cc:Work
         rdf:about="">
        <dc:format>image/svg+xml</dc:format>
        <dc:type
           rdf:resource="http://purl.org/dc/dcmitype/StillImage" />
      </cc:Work>
    </rdf:RDF>
  </metadata>
  <g
     inkscape:label="Layer 1"
     inkscape:groupmode="layer"
     id="layer1">
    <path
       style="fill:#000000"
       d="M 295.40574,464.577 C 294.2037,470.40977 294.51999,469.1133 294.71051,474.86318 C 299.90103,471.68449 306.62781,469.03406 318.20346,466.22897 C 320.61549,465.70957 320.84415,465.30807 320.32457,462.5045 C 318.3042,451.60288 314.00072,444.89828 308.03209,443.35345 C 306.67473,443.00213 303.77358,441.39788 301.58508,439.78844 C 299.39659,438.17899 297.13215,436.86907 296.553,436.87749 C 295.97385,436.88591 296.1437,437.30016 296.93044,437.79803 C 300.18319,439.85646 296.80015,457.81077 295.40574,464.577 z M 403.47634,607.82251 C 403.15603,609.42407 402.96639,610.66202 401.51163,612.11678 C 392.03358,607.43066 388.01609,608.66069 379.65817,606.2159 C 375.7066,605.05294 373.89228,607.3943 369.57927,599.25821 C 364.55362,589.77779 369.10921,579.58428 365.92651,579.45874 C 361.23566,579.27372 359.3924,579.16417 354.42998,581.22043 C 351.16849,582.57188 347.7125,583.93002 346.75,584.23851 C 345.48392,584.64431 345,585.86289 345,588.64523 C 345,592.08903 345.75788,593.24551 352.25,599.70834 L 359.5,606.92563 L 360.8126,602.6439 C 361.61814,600.01621 361.97711,595.17521 361.74186,590.11218 C 361.35665,581.82164 362.02309,580.28527 364.8,583.06218 C 366.34975,584.61193 366.36197,597.08646 364.81891,602.36218 C 364.17545,604.56218 363.58388,606.81218 363.50431,607.36218 C 362.32009,615.54821 361.76033,616.72393 359.14295,616.52275 C 357.38389,616.38755 356.42107,615.66889 356.22081,614.34164 C 355.42609,609.07467 354.6992,607.64369 351.28314,604.62114 C 349.25736,602.82871 346.40251,600.09292 344.93904,598.54161 L 342.27819,595.72103 L 348.43615,601.07533 C 347.77832,605.18913 346.59007,600.0912 349.87499,606.50504 C 352.16092,610.96833 348.82911,620.49388 346.81292,624.7427 C 345.71132,627.06415 340.98357,630.03872 336.80197,632.23066 C 333.53232,633.94457 329.42857,638.28784 329.42857,637.9538 C 324.93428,640.26021 326.26121,642.30973 322.89152,646.18973 C 320.1332,649.52549 319.54106,649.83181 318.28298,648.57373 C 317.08679,647.37754 317.04533,646.4429 318.04105,643.11952 C 319.05583,639.73246 318.96641,638.27338 317.46595,633.73552 C 316.48876,630.78018 314.68903,626.77053 313.46654,624.82519 C 306.92829,614.42083 304.58967,608.44368 304.61659,602.20603 L 304.64316,596.04988 L 302.36057,597.54549 C 300.04708,599.06135 299.6439,599.89511 298.52469,605.47794 C 297.56667,610.25668 289.77529,617.4559 283.61704,619.25257 C 273.86081,622.09895 273.15549,622.10858 270.47889,619.43198 C 267.08283,616.03592 267.29244,613.3979 271.08309,611.82776 C 272.77879,611.12538 276.21825,608.63962 278.72634,606.30386 L 283.28649,602.05702 L 282.14325,597.51678 C 280.11938,589.47929 280.64818,584.73459 284.08932,580.05537 C 285.78844,577.74492 287.58844,576.10782 288.08932,576.41738 C 288.59019,576.72694 289,576.60068 289,576.1368 C 289,575.37711 283.84842,571.86218 282.735,571.86218 C 282.48397,571.86218 282.01965,573.99968 281.70318,576.61218 C 280.94047,582.90837 278.99718,586.50629 273.65229,591.51808 C 267.844,596.96439 266.49603,597.6118 259.44193,598.34314 C 250.12129,599.30945 249.50994,599.43559 249.33862,600.42765 C 257.80221,621.47884 250.42829,605.53579 262.3976,626.64187 C 280.51624,648.90153 275.03871,641.8472 281,649.69092 C 281,652.42031 277.06363,650.45193 270.84294,644.61189 C 266.50372,640.53819 262.19529,635.05449 258.46871,628.86218 C 255.32426,623.63718 252.01994,618.46218 251.12577,617.36218 C 248.11573,613.12896 246.59843,607.51359 244.85324,602.45666 C 244.23416,599.11707 235.55011,598.07619 227.8239,600.4155 C 222.04169,602.16621 216.28212,606.8916 217.50963,608.87775 C 218.42819,610.36402 216.27189,610.89471 215.09181,609.47281 C 213.7144,607.81312 215.19221,603.2454 217.78931,601.13521 C 223.06714,596.84689 227.7059,595.79065 242.73155,595.45585 C 261.62484,595.03487 264.36006,594.25955 271.40244,587.32879 C 274.4811,584.29893 277.00905,581.49196 277.02011,581.09107 C 277.03117,580.69018 277.45121,577.51983 277.95353,574.04585 C 278.89381,567.54306 278.7531,567.08659 274.37967,562.45169 C 273.7635,561.79867 272.50683,559.80918 271.58709,558.03059 C 270.5893,556.10109 269.45819,555.079 268.78268,555.49649 C 268.16,555.88133 265.14166,556.11123 262.07527,556.00738 C 250.77163,555.62457 247.10259,558.90243 246.31883,570.08387 C 245.98021,574.91484 245.22498,577.13389 242.69552,580.73 C 237.57461,588.01039 236.69566,588.92335 232.9331,590.8703 C 230.97131,591.88544 228.78656,593.41444 228.0781,594.26808 C 227.11291,595.43106 226.31493,595.56591 224.89499,594.80598 C 222.14412,593.33376 222.5729,591.19947 225.75,590.55012 C 229.01307,589.88319 235.58964,583.9505 239.32798,578.30149 C 241.2018,575.46995 242.13097,572.54485 242.43751,568.5124 C 242.95045,561.76477 245.31029,557.24359 249.95195,554.11558 C 252.67973,552.27733 254.67174,551.86218 260.76446,551.86218 L 268.23315,551.86218 L 267.6132,549.11218 C 267.27222,547.59968 266.70087,541.25872 266.34353,535.02115 L 265.33668,526.00155 L 263.09691,524.23018 C 258.20006,521.07992 262.6111,520.52164 254.54074,520.43896 C 249.77879,521.61613 244.86825,525.11389 241.18347,529.76715 C 238.39057,533.28062 230.23938,535.06909 223.21954,537.80066 C 231.00237,539.4525 232.39201,540.14349 236.23304,540.94205 C 242.92158,542.33291 243.99299,545.70355 246.97172,546.92322 C 251.75268,548.88082 257.08759,552.80579 265.82107,551.136 C 268.79388,550.56762 269.32361,548.70973 269.32361,551.01992 C 267.71815,557.43996 252.49233,552.33488 247.55584,551.31685 C 244.53084,550.60064 241.71834,549.99861 241.30584,549.97902 C 231.93596,548.07908 241.07794,549.60684 239.14513,556.891 C 236.58601,556.891 232.42858,556.63702 229.21429,547.17873 C 227.22089,541.31299 225.47387,543.23174 222.81329,540.99301 C 218.14089,537.06144 216.00945,538.74144 219.65568,536.20101 C 224.32105,532.95051 225.8481,532.33497 225.84698,530.54864 C 225.84508,527.49972 232.42945,515.2096 233.4082,514.15804 C 234.73785,512.72947 234.18483,512.0455 232.1052,509.07169 C 231.06306,507.58146 227.35056,501.70862 223.8552,496.02094 C 220.35984,490.33326 216.47797,484.03326 215.22882,482.02094 C 213.97968,480.00862 212.69502,477.80226 212.37404,477.11792 C 212.05305,476.43358 211.39363,476.1189 210.90865,476.41864 C 210.42367,476.71837 208.42523,476.52137 206.46767,475.98087 C 204.33897,475.3931 201.82161,475.35025 200.20424,475.87425 C 197.67243,476.69452 187.34268,478.07143 184,478.0342 C 181.72477,478.00887 177.7255,477.19085 175.60289,476.31664 C 173.99171,475.65306 174.10475,476.12244 176.35289,479.43087 C 177.8088,481.57344 179,483.86485 179,484.52289 C 179,485.18093 179.60393,486.32325 180.34206,487.06139 C 181.0802,487.79952 182.27979,489.51917 183.00783,490.88282 C 183.73587,492.24647 187.79067,497.63718 192.01851,502.86218 C 203.84921,517.48322 210.58359,530.31148 213.80454,544.36218 C 217.02378,558.40543 217.43719,560.29283 217.52818,561.36218 C 217.57497,561.91218 218.8496,564.93202 220.36069,568.07294 C 223.74276,575.10286 225.38408,583.86218 223.31927,583.86218 C 222.55915,583.86218 221.66813,583.07468 221.33922,582.11218 C 221.01032,581.14968 219.30353,577.21218 217.54636,573.36218 C 214.59044,566.88571 209.96668,550.56514 209.98996,546.69023 C 210.00808,543.67347 204.3856,528.43327 201.66397,524.12193 C 200.19879,521.80093 199,519.49598 199,518.99983 C 199,517.92605 190.7704,506.84079 182.77942,497.15073 C 177.3772,490.59988 172.78631,482.838 164.42114,466.11218 C 162.42685,462.12468 160.55737,458.86218 160.26674,458.86218 C 157.81009,453.068 158.28406,454.12639 156.45565,450.43484 C 155.31149,448.68863 154.87831,445.47027 154.86424,438.61141 C 154.84637,429.89944 155.09039,428.71898 158.09332,422.99023 C 161.25945,416.95015 165.3723,413.53898 168.47276,411.89937 C 170.73761,410.70165 181.30325,410.3514 184.12842,410.92185 C 187.35007,411.57235 192.27252,412.86218 192.76629,412.86218 C 194.78062,412.86218 200.95439,380.77999 200.98157,370.1712 C 200.99171,366.21616 201.38757,362.74068 201.86127,362.44792 C 202.33497,362.15515 204.47247,361.66209 206.61127,361.35222 C 208.75007,361.04234 211.85,360.54336 213.5,360.24336 C 215.15,359.94336 225.05,359.4999 235.5,359.25789 C 246.4282,359.00481 257.47382,358.2006 261.5,357.36489 C 269.64895,355.67341 290.0641,354.02482 304.76676,353.87097 C 310.41348,353.81188 324.58848,352.87882 336.26676,351.7975 C 347.94504,350.71619 367.175,349.38943 379,348.84915 C 390.825,348.30887 403.5112,347.41578 407.19155,346.8645 C 410.87191,346.31322 417.28441,345.86218 421.44155,345.86218 C 425.81385,345.86218 429,345.44065 429,344.86218 C 429,344.31218 429.60191,343.86218 430.33758,343.86218 C 431.08221,343.86218 432.50507,346.41115 433.54729,349.61218 C 434.57696,352.77468 435.72309,355.81218 436.09424,356.36218 C 436.46539,356.91218 437.07754,358.80539 437.45457,360.56932 C 438.36878,364.84639 441.35304,370.84866 443.91854,373.57037 C 445.06334,374.78487 446,376.21597 446,376.7506 C 446,377.28522 447.31465,380.56654 448.92144,384.04241 C 450.52823,387.51828 452.13021,391.48718 452.4814,392.86218 C 452.83259,394.23718 453.77357,396.24338 454.57246,397.3204 C 455.97423,399.21018 456.12898,399.2172 458.99994,397.52129 C 467.0229,394.05143 477.97304,394.30024 483.38454,405.65103 C 489.50545,420.89555 487.43796,436.18372 486.13198,452.38331 C 486.1314,460.0443 481.7895,469.169 474.53479,478.0757 C 470.32118,483.64107 474.89772,477.94738 470.25,483.05548 C 469.2875,483.77416 467.64251,485.93718 466.59448,487.86218 C 465.54644,489.78718 463.63883,492.48718 462.35535,493.86218 C 458.56048,497.92765 450.13933,509.84567 449.40382,512.19181 C 449.0296,513.38551 447.393,517.06218 445.76694,520.36218 C 444.14088,523.66218 441.02324,531.30379 438.83886,537.34354 C 434.91681,548.18788 434.85597,548.57218 433.96293,568.14162 C 433.46555,579.04081 432.85934,588.28076 432.61579,588.67483 C 432.37224,589.06891 431.87682,592.53477 431.51486,596.37676 C 431.15291,600.21874 430.63489,604.14582 430.36371,605.1036 C 430.09254,606.06139 429.65591,608.08639 429.39343,609.6036 C 428.71243,613.54 425.06044,626.99095 424.0289,629.36218 C 423.55037,630.46218 422.90489,633.51299 422.5945,636.14175 C 421.72422,643.51235 418.33433,650.19513 412.66444,655.71774 C 409.824,658.4844 406.53719,661.78621 405.36043,663.0551 C 404.18367,664.324 404.72864,665.30265 398.88581,668.34691 C 394.84943,670.44997 388.89083,671.75208 387.15848,671.84691 L 377.74589,672.36218 L 375.1877,677.36218 C 373.7807,680.11218 372.03076,683.56865 371.29895,685.04323 C 370.56714,686.5178 369.54118,691.09377 369.01903,695.21205 C 368.49689,699.33033 367.62283,704.64886 367.07668,707.031 C 364.99377,716.11611 363.9837,737.11457 364.99235,750.36218 C 367.08857,777.89373 367.93337,782.54221 372.98045,794.31658 C 374.00884,796.7157 374.64917,798.87967 374.40343,799.12542 C 374.15768,799.37116 375.95725,803.57497 378.40246,808.4672 C 380.84767,813.35944 383.14935,818.57231 383.51729,820.05135 C 384.02408,822.08853 385.67902,823.47577 390.34314,825.77308 C 397.04065,829.07194 422.90694,837.35588 429.75,838.39353 C 432.0875,838.74797 434,839.22342 434,839.45008 C 434,839.97186 430.08646,843.90928 429.75,843.726 C 429.6125,843.6511 428.375,843.41094 427,843.19232 C 423.76328,842.67768 410.2319,838.09444 407,836.41807 C 405.625,835.70487 402.025,834.55194 399,833.856 C 395.975,833.16006 391.72516,831.69805 389.55591,830.60708 C 386.49837,829.06937 385.21376,828.8721 383.84086,829.72949 C 382.30016,830.69168 381.9318,830.32263 381.00777,826.89105 C 380.42361,824.72162 379.50788,822.67607 378.97283,822.34539 C 378.43777,822.0147 378,820.86153 378,819.78279 C 378,818.70404 376.22795,814.07387 374.06211,809.49352 C 364.87274,790.05975 361.93857,777.78278 360.40782,752.36218 C 359.38335,735.34902 359.43394,733.73775 361.60097,714.36218 C 362.93985,702.39109 367.33175,684.15241 370.55679,677.17043 C 374.49547,668.64347 377.00892,670.94074 385.3187,667.79784 C 390.05052,666.00818 392.21054,665.66371 396.8187,664.35275 C 405.71805,661.821 413.46435,649.48776 415.83938,643.36218 C 416.90561,640.61218 418.69074,634.31218 419.80632,629.36218 C 420.92191,624.41218 422.50395,617.43718 423.32198,613.86218 C 426.14371,601.53049 426.87777,596.30866 427.96096,580.86218 C 430.38063,546.35736 434.97805,541.90215 438.75146,524.86218 C 442.49138,517.1398 445.86236,508.92213 450.66453,501.40871 L 459.57423,490.07377 C 464.47457,483.83956 470.17339,476.85409 472.23828,474.55051 C 476.80541,469.45544 481.40177,462.82394 480.57529,460.67017 C 472.54348,458.56832 469.85006,460.11749 454.86909,460.90585 C 450.79042,462.18364 445.08057,469.39901 441.9724,474.53908 C 436.72001,482.03733 431.34167,487.22311 425.3274,494.95368 C 426.36932,495.99559 438.29222,494.56957 439.94997,493.8829 C 441.60773,493.19624 443.64716,492.89654 444.48204,493.21691 C 447.09708,497.74635 441.45828,496.22121 439.42968,501.84413 C 434.54394,506.75276 439.40596,502.46089 435.61235,506.03888 C 431.81874,509.61687 423.28012,521.28482 421.13735,525.53947 C 419.98025,527.83698 418.12599,530.0048 417.01677,530.35686 C 415.90159,530.7108 415,531.8698 415,532.94944 C 415,534.02331 413.84418,536.73285 412.43152,538.97066 L 409.86304,543.03939 L 411.95951,547.49943 C 413.56434,550.91355 413.91609,553.06199 413.45946,556.66083 C 413.13137,559.24657 412.7348,562.67782 412.57819,564.28583 C 412.08335,569.36665 406.32473,570.06505 404.15689,565.30717 C 403.54418,563.96242 402.65951,562.86218 402.19096,562.86218 C 401.7224,562.86218 398.61169,564.26924 398.25752,567.15312 C 397.6889,571.78323 399.11249,569.66864 400.99434,572.11741 C 403.75967,582.76857 404.5069,583.78399 403.44362,591.25494 C 402.72508,596.30364 403.1314,593.83874 403.45434,598.57261 M 406.1452,559.51674 C 408.25236,561.7597 408.49777,561.81231 409.14961,560.1607 C 409.54001,559.17151 409.87076,556.78718 409.88461,554.86218 C 409.89846,552.93718 409.31431,550.01218 408.5865,548.36218 L 407.2632,545.36218 L 402.67728,545.49915 C 399.16665,546.51852 399.8287,546.2055 394.97451,547.31382 C 391.74481,548.32763 389.58321,549.8319 389,553.44397 C 389,553.67398 390.2375,553.89381 391.75,553.93247 C 393.2625,553.97112 395.4,554.38949 396.5,554.86218 M 376.06679,519.78617 C 375.70325,521.06013 375.8069,528.17379 376.10139,529.5167 C 376.39588,530.85961 372.03445,527.17499 371.97547,526.46559 C 371.80523,524.41786 372.41158,521.1025 372.41158,521.1025 L 374.26345,516.99344 C 377.04326,513.23356 381.19196,510.65948 385.17721,512.16374 C 388.1784,513.29656 393.93065,519.42443 389.92717,525.33596 C 388.42244,527.55784 386.20059,528.57741 383.20865,528.02391 C 379.30905,525.71899 380.2993,522.76381 379.24546,517.8523 M 369.82143,534.01549 C 378.28393,537.51261 379.27443,537.62303 383.88762,537.47514 C 390.81398,537.25311 392.52035,536.87142 393.68223,535.28422 C 394.62679,533.9939 394.88134,532.12967 394.45671,529.61218 C 394.02245,527.03755 394.1946,525.86218 395.00594,525.86218 C 396.28737,525.86218 395.7969,519.36645 393.85447,510.61218 C 392.60326,504.97317 392.64245,504.98014 379,507.97153 C 373.775,509.11721 368.7125,510.10773 367.75,510.17267 C 365.67404,510.31274 362.4113,515.75028 365.88041,528.77957 M 379.24546,517.8523 C 378.04581,516.66469 376.43033,518.51221 376.06679,519.78617 M 448.57433,461.25537 C 449.86039,457.45938 406,464.91825 406,464.91825 L 406,470.15502 C 406,474.90774 403.32573,482.27499 401.02438,483.86218 C 400.16875,484.45229 398,488.4316 398,489.41145 C 398,489.78586 399.0125,489.45005 400.25,488.6652 C 404.72821,485.82502 409.14786,486.4971 415.55796,490.99304 C 424.88092,497.53201 417.98006,494.97905 421.51559,494.14156 C 425.04476,489.42507 429.94382,486.06439 436.26933,477.9842 C 445.21719,466.84083 447.28827,465.05136 448.57433,461.25537 M 468.36922,422.09254 C 470.81171,417.53207 475.22749,415.22643 477.12965,417.5184 C 478.18314,418.78777 478.11087,419.22063 476.71503,420.00178 C 474.80656,421.06981 473.15664,423.8292 471.98612,427.91057 C 471.36982,430.05949 471.73059,431.47306 473.5959,434.21813 C 476.4989,438.49028 485.24435,456.21932 482.65476,456.21932 C 481.47401,456.21932 471.78103,439.80631 471.16228,438.11218 C 470.60987,436.59968 469.35787,435.02703 469.30602,435.85203 C 467.13609,437.15367 468.34754,436.03855 466.31158,437.78653 C 465.17384,438.84649 461.519,440.24964 458.18972,440.90464 C 452.5706,442.01013 451.92257,441.94324 449.15406,439.97188 C 445.88477,431.93163 447.95215,440.98716 445.78523,429.14264 C 446.14539,421.99058 449.38655,408.25048 451.76431,405.5913 C 453.21935,403.96403 453.1188,403.31522 450.52445,397.5913 C 443.2347,381.50787 439.81441,374.35787 439.18242,373.88117 C 438.804,373.59573 437.2891,371.56218 435.81598,369.36218 C 433.93605,366.55463 433.29691,364.56318 433.67202,362.68201 C 434.01746,360.94966 433.41801,358.59898 431.97696,356.03498 C 429.82976,352.21455 429.51006,352.04271 423.31551,351.37933 C 419.77793,351.00048 414.77225,350.95159 412.19177,351.27067 C 409.6113,351.58976 398.275,352.3202 387,352.89388 C 365.17985,354.0041 362.49032,354.19031 343,355.94013 C 336.125,356.55735 321.725,357.1982 311,357.36423 C 292.75434,357.64667 269.71385,359.63764 258.70078,361.88349 C 256.06121,362.42177 246.83621,362.86126 238.20078,362.86015 C 228.07483,362.85883 219.39316,363.42832 213.75,364.46404 L 205,366.06996 L 205,369.40705 C 205,371.24245 205.42293,373.00553 205.93985,373.325 C 206.50243,373.6727 206.35019,375.20169 205.56061,377.13402 C 204.83511,378.90951 203.90182,383.06218 203.48663,386.36218 C 203.07144,389.66218 202.6113,393.33299 202.4641,394.51955 C 202.31689,395.7061 201.7293,398.1811 201.15835,400.01955 C 200.58739,401.85799 199.57184,405.94751 198.90156,409.10737 C 197.7353,414.60542 197.78158,414.93816 199.97749,416.84266 C 203.18619,419.62555 204.39853,422.30052 206.50499,431.24533 C 208.00071,437.59666 208.12343,439.63194 207.16969,442.26946 C 206.52636,444.04856 206,446.234 206,447.12602 C 206,449.2126 202.09226,455.86218 200.86604,455.86218 C 200.35102,455.86218 198.78993,455.11541 197.39695,454.2027 C 196.00397,453.28999 193.2405,452.60427 191.25589,452.67888 C 189.27128,452.75348 187.04095,452.31112 186.29959,451.69585 C 185.55823,451.08058 184.70909,450.81976 184.41261,451.11624 C 183.07176,452.45708 178.4149,471.61042 179.23126,472.42677 C 179.93995,473.13546 192.70389,473.16322 193.84407,472.45855 C 194.65052,471.96013 220.34756,471.3652 225.25,471.73144 C 226.2625,471.80708 227,472.66992 227,473.77885 C 227,475.38895 226.26691,475.69551 222.41667,475.69551 C 219.89583,475.69551 217.62171,475.90714 217.36305,476.16579 C 217.1044,476.42445 219.0544,480.02732 221.69639,484.17219 C 224.33837,488.31705 229.39753,496.25844 232.93896,501.81972 C 237.76781,509.40269 237.69921,509.95408 238.7961,509.31892 C 241.26181,507.89113 240.6285,508.08229 242.86492,507.97786 C 244.37415,507.90739 244.85342,508.40259 239.6031,503.27984 C 232.17906,496.0362 231.0189,493.14936 230.99581,481.86218 C 230.98381,475.99679 230.43927,473.19966 228.49734,469.02823 C 225.78379,463.19929 223.46619,460.87937 217.75,458.27016 C 214.72216,456.88807 214,456.02132 214,453.76932 C 214,450.90245 215.72679,448.92112 216.8618,450.48566 C 218.39489,452.59892 223.34537,454.13429 230.6438,454.7601 C 237.45436,455.34408 239.36015,455.12 244.96256,453.07654 C 252.18983,450.44043 255.19007,450.62858 261.63036,454.12184 C 271.67694,459.57118 273.66098,460.80609 276.28209,463.24134 C 279.80328,466.51286 281.85793,467.604 285,467.87107 C 289.0721,468.21719 290,467.94288 290,466.39297 C 290,465.58491 291.0125,462.99741 292.25,460.64297 C 295.22324,454.98617 295.54772,440.30783 292.73434,438.73338 C 290.86766,437.68874 290.46637,434.25389 291.9391,431.92648 C 292.68024,430.75522 293.12982,430.72503 294.37998,431.76257 C 295.22281,432.46206 296.36072,432.75727 296.90869,432.41861 C 297.45665,432.07995 299.98583,433.39121 302.52909,435.33252 C 305.07235,437.27383 307.81264,438.86218 308.61864,438.86218 C 309.42463,438.86218 312.08296,440.32468 314.52604,442.11218 C 317.79182,444.50162 319.35623,446.55372 320.43424,449.86218 C 324.34954,461.87842 327.22832,467.74605 329.25,467.83076 C 329.6625,467.84804 330,466.49935 330,464.83366 C 330,461.34414 334.92651,451.11588 337.73321,448.77824 C 338.77918,447.90708 342.0796,446.33972 345.06748,445.29524 C 348.05537,444.25075 352.75,442.26352 355.5,440.87917 C 361.21939,438.00004 363.64133,434.08169 367.09992,422.11218 C 368.40155,417.60746 369.71958,414.86218 370.58068,414.86218 C 372.89685,414.86218 381.59602,423.68808 384.12348,428.60226 C 387.42362,435.01879 387.43978,448.97047 384.1555,456.25372 C 382.94233,458.94406 382.15792,461.35344 382.41237,461.60788 C 383.34852,462.54403 394.06116,461.90129 396.24514,460.77794 C 397.48531,460.14005 399.70714,458.24274 401.18253,456.56171 C 403.51104,453.90865 404.0804,453.68401 405.49681,454.85953 C 406.54348,455.72819 406.92143,457.03911 406.55086,458.51556 C 406.09367,460.33716 406.05045,459.14781 407.87944,459.14155 C 421.40103,459.09526 424.90664,458.58639 443.27394,456.71947 C 455.64154,456.51102 468.70879,455.40629 481.16558,455.46426 C 483.93799,456.28998 482.3331,454.24605 482.04209,449.72175 C 481.94868,448.26952 482.33317,444.44452 482.8965,441.22175 C 484.95079,429.4695 484.63648,423.00677 481.50512,412.61218 C 479.88967,407.24968 478.04525,402.86218 477.40641,402.86218 C 476.76758,402.86218 475.72376,402.23425 475.08682,401.46679 C 471.9225,397.65402 463.06211,399.08001 457.85962,405.93414 L 453.2195,413.64473 C 452.06897,416.23933 450.85955,420.71607 450.53191,423.59304 C 449.55828,425.69723 450.37867,423.01983 449.07143,431.60964 C 449.73203,433.37741 448.79254,433.7117 450.73476,435.85784 C 452.11006,437.37752 452.34152,437.90677 455.85452,437.47654 C 458.27743,437.17981 461.14304,436.13772 462.22253,435.16079 C 466.36795,431.40924 461.48005,435.81102 466.72098,430.56399 M 187.27926,445.69389 C 193.80351,449.99221 189.16833,447.3816 192.71462,448.27847 C 195.34658,449.64829 197.7775,450.79001 198.11667,450.81562 C 198.45585,450.84123 199.69335,448.55217 200.86667,445.72883 C 202.04,442.90548 202.98618,438.51798 202.96928,435.97883 C 202.93751,431.20483 199.29685,420.77214 197.45316,420.17182 C 187.76129,414.58104 198.87717,420.61435 191.90694,416.75829 C 186.25433,414.89863 186.64136,414.54651 184.12456,413.95549 C 180.98029,413.21712 175.00642,412.83266 171.2991,414.38168 C 166.93505,416.20509 164.39368,418.95673 161.6195,424.86218 C 158.80747,430.84819 158.59199,445.06435 161.25176,449.12366 C 162.21329,450.59115 162.49492,452.05684 163,452.94197 C 163.31351,453.49139 164.87129,458.08632 167.15841,462.96812 C 171.41915,472.06255 172.155,472.55401 175.23469,468.36218 C 175.63877,467.81218 175.97426,466.46218 175.98024,465.36218 C 175.98621,464.26218 177.16619,459.66489 178.6024,455.14598 L 181.21371,446.92978 L 177.66055,442.77872 C 173.61711,438.05487 172.03348,433.09004 174.14311,431.75122 C 175.12737,431.12659 175.94121,431.86267 177.10659,434.43154 C 178.88206,438.34524 184.32306,443.93061 184.13996,442.05761 M 297.62678,903.15563 C 296.41441,901.94325 297.01894,899.79248 298.75,899.15953 C 301.10812,898.29729 307.29911,891.48341 311.26413,885.38632 C 314.00613,881.16988 314.51486,879.43744 314.59738,874.03515 C 314.68669,868.18871 313.3631,861.89194 311.69401,860.22286 C 310.9229,859.45175 312.79413,856.86218 314.12244,856.86218 C 314.6051,856.86218 315,857.58532 315,858.46917 C 315,859.61606 315.50104,859.86339 316.75,859.33303 C 322.42484,856.92326 330.69712,856.82904 343.5,859.02835 C 353.15346,860.68664 360.23268,861.24016 371,861.17852 C 383.79732,861.10527 386.55684,860.77425 394.5,858.3595 C 399.45,856.85468 404.175,855.61584 405,855.60652 C 405.825,855.59719 406.95,855.25955 407.5,854.8562 C 408.05,854.45284 410.3,853.55554 412.5,852.86218 C 414.7,852.16882 416.95,851.26972 417.5,850.86417 C 418.05,850.45863 420.87933,849.35052 423.78739,848.40171 C 426.69545,847.45291 431.35317,845.14336 434.13788,843.26939 C 439.94436,839.36192 441,839.12661 441,841.73974 C 441,844.21297 438.4103,846.48351 437.67619,844.65392 C 437.35157,843.84486 437.12839,844.02817 437.07895,845.14447 C 437.00045,846.91652 429.45107,850.94461 420.5,853.99042 C 418.3,854.73902 416.275,855.61041 416,855.92684 C 415.725,856.24326 412.125,857.52875 408,858.78347 C 403.875,860.0382 398.76074,861.71126 396.63499,862.50141 C 394.50923,863.29155 390.90923,864.17556 388.63499,864.46588 C 376.00183,866.07858 367.16813,866.72224 364.61524,866.21606 C 363.02862,865.90146 360.32862,865.53311 358.61524,865.3975 C 356.90186,865.26189 351,864.36975 345.5,863.41497 C 332.90836,861.2291 321.60553,861.68509 319.49674,864.46401 C 318.70451,865.508 318.26156,866.94303 318.51242,867.65296 C 318.76328,868.36289 318.4885,872.39498 317.90181,876.61316 C 317.05163,882.72569 316.19732,885.10267 313.69338,888.32238 C 311.96545,890.54427 310.31249,892.58718 310.02015,892.86218 C 309.72781,893.13718 308.23042,895.05015 306.69262,897.11323 C 303.85989,900.91355 298.77428,904.30312 297.62678,903.15563 z M 293.66667,895.19551 C 293.3,894.82885 293,893.12897 293,891.41802 C 293,888.34609 291.36735,885.26158 287.67741,881.36218 C 286.63649,880.26218 284.76689,877.77652 283.52274,875.83849 C 282.27859,873.90047 279.32797,870.97547 276.96582,869.33849 C 273.05003,866.62485 271.95742,866.36547 264.5855,866.39943 C 257.28867,866.43304 255.79507,866.795 249.27306,870.11025 C 241.63259,873.99403 231.02577,877.40609 217,880.49202 C 205.50505,883.02113 175.78004,883.17987 169,880.74835 C 166.525,879.86075 161.0125,878.09402 156.75,876.82229 C 145.77401,873.54758 146.14411,871.85414 158.45376,869.02652 C 163.65333,867.83213 171.41583,866.39073 175.70376,865.8234 C 185.95049,864.46765 195.74767,861.51113 203.34333,857.48253 C 206.7295,855.68656 211.75,853.38188 214.5,852.36101 C 221.84331,849.63499 238.09879,838.56487 242.77729,833.10395 C 245.01159,830.49597 248.16465,826.78718 249.78408,824.86218 C 253.13616,820.8776 262,806.85923 262,805.54242 C 262,805.06309 262.97093,803.30738 264.15762,801.64083 C 265.34431,799.97427 268.04964,795.19888 270.16946,791.02883 C 273.64747,784.187 273.62651,782.52403 276.39195,771.40456 C 280.29345,755.95423 277.21072,768.0703 283.13827,746.71003 C 284.23861,741.01871 285.52471,735.46218 285.99627,734.36218 C 287.03478,731.93966 288.91065,721.06072 289.36446,714.82862 C 289.83165,708.41279 288.33766,697.27723 286.57997,694.07428 C 285.76139,692.58263 284.61816,687.55681 284.03945,682.9058 C 283.46074,678.2548 282.55342,674.0156 282.02319,673.48537 C 281.49295,672.95513 278.80381,672.40725 276.04731,672.26786 C 266.41682,671.78086 260.2258,669.21914 253.74821,663.04096 C 236.26002,648.52392 233.31088,630.88443 226.00453,612.37275 C 224.49198,608.84411 224.22948,607.23839 225.03585,606.44731 C 226.69728,604.8174 229.47424,608.77228 232.00209,616.36846 C 236.98953,634.80459 245.07017,650.06712 259.79534,663.22035 C 264.16562,666.24896 277.32281,669.14762 282.23773,668.16463 C 284.64706,667.68277 285.17231,668.04146 286.37127,670.9874 C 287.12668,672.84353 288.287,678.18718 288.94975,682.86218 C 289.61251,687.53718 290.57352,692.93718 291.08533,694.86218 C 292.90726,701.71464 293.68888,717.17758 292.5139,723.1238 C 287.63808,747.79899 285.00366,755.77081 281.74567,764.86218 C 278.08615,775.87887 277.76281,783.47764 273.18574,792.07644 C 272.53358,792.7286 272,793.84042 272,794.54716 C 272,795.25389 270.65,798.02616 269,800.70776 C 267.35,803.38935 266,806.04159 266,806.60162 C 266,807.97053 259.78872,818.21632 257.68125,820.32379 C 256.75656,821.24848 256,822.36554 256,822.80615 C 256,824.18755 245.90005,836.3281 244.15835,837.04029 C 243.24626,837.41325 240.907,839.21624 238.96,841.04693 C 234.92968,844.83647 224.43454,851.58171 218.5,854.19659 C 216.3,855.16595 213.71861,856.38727 212.76357,856.91062 C 211.80853,857.43398 210.26897,857.86218 209.34231,857.86218 C 208.41565,857.86218 206.94705,858.50024 206.07874,859.2801 C 202.79519,862.22917 188.69413,866.86058 176.82328,868.8889 C 170.04547,870.047 163.02657,871.2504 161.22572,871.56314 C 156.58535,872.36898 156.39096,873.5258 160.75875,874.34202 C 162.81644,874.72654 164.95,875.38594 165.5,875.80734 C 169.17813,878.62546 202.07656,880.1176 212.5,877.93906 C 228.09726,874.67918 232.73624,873.49739 238.72436,871.25837 C 242.45096,869.86496 246.98822,867.85578 248.80716,866.79354 C 250.6261,865.73129 253.22772,864.86218 254.58854,864.86218 C 255.94937,864.86218 257.34319,864.13141 257.68593,863.23825 C 258.21615,861.85652 259.40165,861.71333 265.63462,862.27815 C 269.66366,862.64325 274.32292,863.51497 275.98853,864.21531 C 279.00785,865.48484 289,874.38405 289,875.80359 C 289,876.21472 290.11096,877.84401 291.46881,879.42424 C 292.82666,881.00446 294.44707,883.66195 295.06973,885.32977 C 295.69239,886.9976 296.67426,889.35934 297.25166,890.57809 C 298.68433,893.60212 295.79486,897.32371 293.66667,895.19551 z M 323.32496,635.49437 C 326.67249,634.90476 329.99494,629.37043 333.85735,627.75256 C 341.62826,624.27521 349.00158,617.23514 345.6649,610.72737 C 345.86605,603.76339 346.306,607.82633 345.03543,600.23871 L 336.85658,585.68136 L 334.17829,586.42079 C 332.70523,586.82748 328.41822,587.27281 324.65159,587.41042 C 318.43666,587.63747 317.4921,587.96212 314.4402,590.92014 C 310.47907,594.75942 308,599.57334 308,603.42588 C 308,604.94468 310.67198,610.95167 313.93774,616.77475 C 317.2035,622.59784 320.691,629.94349 321.68774,633.09842 C 323.62058,639.2163 321.41875,637.40058 323.32496,635.49437 z M 284.9597,613.38302 C 289.91011,610.82306 293.68111,606.18567 294.96788,601.07545 C 296.1631,596.32882 298.52513,592.17406 299.76926,592.62995 C 301.11253,593.12216 306.47857,590.49642 308.30152,588.45489 C 310.07168,586.47248 310.01841,586.40977 305.24174,584.85259 C 302.56803,583.98096 298.03213,581.82288 295.16196,580.05685 C 290.47555,577.17328 289.88019,577.02515 289.32273,578.60404 C 288.98131,579.57101 287.82524,581.33779 286.75369,582.5302 C 285.16078,584.30276 284.90159,585.67083 285.33274,590.0302 C 286.02135,596.99273 286.43047,599.13165 287.36189,600.63871 C 288.68349,602.77711 287.09202,605.19784 281.00762,610.30398 C 277.76891,613.02197 275.32333,615.57632 275.57301,615.98031 C 276.13563,616.89065 280.52575,615.6759 284.9597,613.38302 z M 399.8319,589.04949 C 400.93115,581.31706 399.12864,575.09227 393.07369,570.83521 C 384.21911,564.6098 382.34361,564.74807 376.36874,567.27642 C 372.49622,568.91513 370.10461,573.01159 369.00297,573.36124 C 366.13905,574.27021 366.52872,575.86218 369.61513,575.86218 C 373.42468,575.86218 368.75003,585.03899 372.40545,593.99794 C 374.10614,598.16613 377.9308,598.71732 378.72213,600.46091 C 388.93067,605.16482 395.77142,604.59168 400.13173,608.62065 C 402.36639,600.52168 397.51175,599.02048 399.8319,589.04949 z M 336.88555,582.86218 C 338.2526,582.86218 340.39941,581.89613 341.65623,580.71541 C 343.52179,578.96281 344.21581,578.7964 345.43604,579.80909 C 346.66317,580.82753 348.77156,580.16477 357.21535,576.10637 C 362.87191,573.38762 369.075,569.62786 371,567.75136 C 375.61778,563.24993 387.28572,547.09162 387.28572,546.17705 C 387.28572,545.77871 381.5375,547.01664 379.75,546.74545 C 371.79547,545.91723 366.28054,543.18039 360.4772,535.16133 C 360.08581,531.34121 358.25004,528.86679 357.61191,528.873 C 357.00036,528.87896 354.26075,529.56306 351.52388,530.39322 C 348.78702,531.22339 345.90944,531.65767 345.12927,531.35829 C 344.34909,531.05891 344.23834,531.08223 343.35538,531.84662 C 340.37454,534.42717 334.93966,535.14887 332.61958,533.03009 C 330.71308,531.28902 332.13729,534.81594 326.4755,535.49373 C 325.57297,535.60177 321.98024,533.17852 322.1925,536.11218 C 317.70526,546.23926 318.45631,552.37823 304.06572,559.08411 C 294.58804,562.6718 284.09099,558.66163 280,560.84178 C 278.77466,561.617 279.50082,562.80437 283.96584,567.32647 C 286.97205,570.37111 290.00955,572.86218 290.71584,572.86218 C 291.42213,572.86218 292.82549,573.64968 293.83442,574.61218 C 298.10781,578.6889 304.99021,581.89521 310.19501,582.2341 C 312.56275,582.38826 315.175,582.80822 316,583.16734 C 318.20498,584.12716 332.34124,584.48752 333.45,583.61218 C 333.9725,583.19968 335.5185,582.86218 336.88555,582.86218 z M 334.75,570.22681 C 333.7875,569.94561 333,569.06526 333,568.27049 C 333,567.17841 334.22829,566.86892 338.02868,567.00343 C 342.17278,567.1501 343.53605,566.73552 345.77868,564.64656 C 350.16182,560.56375 352.89763,563.00838 349.07369,567.59087 C 347.70184,569.23486 345.80851,569.94005 341.85696,570.27883 C 338.91063,570.53142 335.7125,570.50801 334.75,570.22681 z M 395.37072,564.11218 C 397.60605,559.78954 397.61458,559.56966 395.55882,559.26793 C 394.49117,559.11124 392.60624,558.72919 391.3701,558.41893 C 388.54008,557.70864 387.39582,559.40086 389.37073,561.37577 C 390.19477,562.19981 391.15379,563.77136 391.50188,564.8681 C 392.37525,567.61985 393.68964,567.36304 395.37072,564.11218 z M 301.75267,550.93783 C 304.24784,550.26064 306.65305,548.79513 307.57261,547.39171 C 310.12364,543.49835 313.18894,534.59963 312.20093,533.95548 C 312.12766,530.46137 310.84803,527.06465 309.57859,523.67795 C 308.09215,520.14586 307.89361,520.0323 304.77066,520.92795 C 296.58569,522.25282 288.37616,523.46331 280.12033,524.4712 C 278.63476,523.12689 278.5225,523.89304 278.77055,533.68356 C 278.91936,539.5568 279.06899,545.75087 279.10307,547.44816 C 279.15127,549.84857 279.75763,550.75459 281.83252,551.52646 C 285.19632,552.77783 296.16754,552.45363 301.75267,550.93783 z M 404.5,533.86218 C 404.16008,533.31218 403.45852,532.86218 402.94098,532.86218 C 402.42344,532.86218 402,533.31218 402,533.86218 C 402,534.41218 402.70156,534.86218 403.55902,534.86218 C 404.41648,534.86218 404.83992,534.41218 404.5,533.86218 z M 339.55283,524.0344 C 338.18101,530.30988 335.48988,530.86218 337.35679,530.86218 C 337.90183,530.86218 343.28598,529.87902 344.57973,526.85758 C 346.66711,521.98268 346.16884,521.83759 346.16884,518.75888 C 346.16884,513.46319 342.80288,510.86218 337.40403,510.86218 C 331.99352,510.86218 334.10061,511.90217 337.12918,515.77196 C 338.54133,518.00292 337.91592,516.88717 339.19569,519.57012 M 404.7379,521.11218 C 404.43657,516.84968 403.64384,511.22468 402.97629,508.61218 C 401.95496,504.61512 401.3851,503.86218 399.38129,503.86218 C 396.72326,503.86218 396.29823,505.88619 398.01051,510.38984 C 398.5663,511.85166 399.11572,516.18923 399.23145,520.02889 C 399.44272,527.03792 400.35168,528.75446 403.89289,528.83177 C 405.0122,528.85621 405.17818,527.33999 404.7379,521.11218 z M 335.09888,524.41236 C 335.99171,520.91139 335.55923,518.80868 334.22165,517.43376 C 333.642,515.2172 330.55375,511.56872 327.46798,512.01906 C 325.31989,512.33255 320.67904,514.4151 322.46774,516.19556 C 323.55585,517.27865 324.49995,520.00986 324.77472,522.86948 C 325.22174,527.52164 325.83561,530.9517 328.07522,529.93127 C 329.35689,529.3473 334.69672,525.98928 335.09888,524.41236 z M 351.92848,526.39917 C 355.31894,524.64589 356,523.11296 356,517.23494 C 356,511.72468 352.72194,507.86218 348.04545,507.86218 C 346.04243,509.11218 344.37582,508.09891 347.07038,511.7435 C 349.59961,515.16446 350.30204,521.60321 348.46179,524.49756 C 347.71506,525.67202 347.38067,526.90952 347.71871,527.24756 C 348.56214,528.09098 348.71736,528.0597 351.92848,526.39917 z M 320.83466,521.80584 C 320.26189,517.89163 318.35671,518.47763 318.81769,522.42624 C 319.08781,524.74006 319.58249,525.67969 320.20354,525.05864 C 320.73473,524.52745 321.01873,523.0637 320.83466,521.80584 z M 419.04412,520.13001 C 420.82339,516.97731 425.15801,511.51898 428.67662,508.00038 C 434.984,501.693 436.11803,499.65828 432.13921,501.78768 C 429.5688,503.16332 422.25126,500.44394 414.88101,495.3741 C 412.07302,493.44254 409.39779,491.86218 408.93606,491.86218 C 408.47433,491.86218 408.70455,493.30818 409.44765,495.07551 C 410.59016,497.79273 410.58455,498.4489 409.41133,499.32551 C 408.25484,500.18962 408.61096,502.16662 411.55069,511.20242 C 413.49043,517.16456 414.80473,522.90206 414.47136,523.95242 C 413.21347,527.91567 415.93323,525.6422 419.04412,520.13001 z M 248.84454,518.82791 C 252.34428,518.82831 256.14861,519.86218 253.05902,519.86218 C 251.99148,519.86218 250.83992,519.41218 250.5,518.86218 C 249.82105,517.76361 244.35788,517.81429 242.94423,517.98859 C 236.03093,518.84098 234.32372,528.45936 235.48408,528.56981 C 239.07067,528.91121 243.67052,518.82731 248.84454,518.82791 z M 343.02256,507.85259 C 344.44805,506.03758 345.57358,505.11165 348.77256,505.42792 C 352.91227,506.38964 358.09245,504.63624 358.73666,504.22613 C 364.07119,502.20972 360.97787,502.4907 368.64349,500.56267 C 386.35376,496.10825 387.49648,495.44999 387.77148,495.30031 C 389.65421,494.27558 379.07111,482.98019 375.79278,480.6401 C 374.79246,479.92607 373.89286,478.77808 373,478.48584 C 361.19082,469.69759 347.7617,470.30652 334.17857,471.57908 C 331.15357,471.47902 327.90726,471.9235 327.1828,471.47555 C 324.46596,469.79564 302.67832,475.72319 300,478.87091 C 299.725,479.19411 297.925,480.51916 296,481.81548 C 291.70601,484.70709 282.71949,494.06924 279.47703,499.02909 C 276.08451,504.21848 275.62034,507.01777 277.43302,511.35611 L 279.01156,515.13409 L 288.25578,514.50873 C 293.3401,514.16478 300.18759,513.45383 303.47241,512.92885 C 308.13894,512.08669 313.77125,512.94978 318.45113,512.37741 C 319.68693,512.22514 321.60003,509.03017 324.53025,508.86991 C 327.46046,508.70965 330.65018,509.81633 331.91384,509.68107 C 336.66969,506.74996 338.15603,507.31192 341.41541,507.85259 M 269.45659,511.11218 C 271.01356,504.75391 277.04665,493.84593 281.5,489.3374 C 286.36717,484.40992 286.37828,484.34547 283.33384,478.70416 C 278.1608,469.11858 270.41617,462.29062 258.62314,456.91828 C 253.11765,454.41024 251.68447,454.36792 248.25702,456.61218 C 246.13731,458.00014 243.66205,458.32702 236.2922,458.19224 C 228.85221,458.05618 227,458.30534 227,459.44224 C 227,460.22321 227.34767,460.86218 227.7726,460.86218 C 228.4993,460.86218 230.33737,464.15467 232.79695,469.86218 C 234.59498,474.03452 235.12636,476.63314 235.09424,481.09667 C 235.01649,491.90381 235.88542,494.52715 241.38716,500.09526 C 244.24944,502.99206 247.61627,505.94911 248.86901,506.66647 C 256.87161,511.24901 259.81213,512.33018 268.14159,513.75261 C 268.49447,513.81288 269.08621,512.62468 269.45659,511.11218 z M 226.51531,439.0109 C 226.73966,434.41769 227.38659,430.10129 227.95294,429.41889 C 228.51928,428.73649 228.69743,427.89294 228.34882,427.54434 C 228.00022,427.19573 228.15485,426.33714 228.69244,425.63635 C 229.93878,424.01164 234.77409,409.84969 234.76107,407.86218 C 234.75285,406.60737 236.43629,399.05464 238.66167,390.36218 C 238.94329,389.26218 239.41799,384.86516 239.71656,380.59103 C 240.23938,373.10673 241.41137,370.29172 242.96077,372.79871 C 243.79526,374.14894 243.59061,375.73947 240.95824,388.36218 C 237.88747,403.0871 234.67954,414.81868 230.43184,426.85784 C 228.97728,430.98046 227.40923,437.28046 226.94729,440.85784 C 226.12002,447.26431 226.11353,447.23652 226.51531,439.0109 z M 325.04381,438.68118 C 324.41048,435.75573 323.65191,431.56218 323.35811,429.36218 C 323.0643,427.16218 322.39132,423.56218 321.86258,421.36218 C 321.33384,419.16218 320.72898,415.42582 320.51843,413.05915 C 320.30788,410.69248 319.81015,407.31748 319.41236,405.55915 C 319.01457,403.80082 318.54954,401.23718 318.37896,399.86218 C 318.20839,398.48718 317.64366,395.08315 317.124,392.29767 C 315.49157,383.54747 314.63937,368.86218 315.76403,368.86218 C 317.38112,368.86218 318,371.53016 318,378.50134 C 318,382.06291 318.46706,388.21361 319.03791,392.16955 C 319.60876,396.1255 320.48567,402.28718 320.98659,405.86218 C 321.48751,409.43718 323.07181,419.27331 324.50727,427.72025 C 327.04031,442.62598 327.37412,449.44517 325.04381,438.68118 z M 409.27441,440.1071 C 408.22149,438.3196 407.58716,435.98924 405.05881,435.12494 C 403.79315,433.75556 402,431.59052 402,430.6224 C 399.95693,428.9217 398.4608,426.91234 396.78634,424.36218 C 392.94381,419.64459 385,404.36504 385,401.69172 C 385,400.93023 384.31677,399.33175 383.48172,398.13954 C 382.64666,396.94733 382.28482,395.59908 382.14575,395.16703 C 381.54304,393.2945 380.78235,388.42404 379.96223,387.86218 C 378.37444,386.77438 368,370.46279 368,369.05412 C 368,366.70838 371.87225,370.62067 373.56838,374.68008 C 374.34018,376.52725 376.33441,379.7592 378,381.86218 C 379.66559,383.96516 381.70368,387.18797 382.52909,389.02398 C 383.60046,393.55092 384.33074,392.18198 387,401.0525 C 390.85935,406.43655 391.20791,408.66369 392.31539,413.04075 C 393.03886,413.76754 394.92762,416.61218 396.51265,419.36218 C 398.918,423.53545 403.21755,429.83475 406.75079,434.36218 C 411.15047,439.99985 412,441.31639 412,442.49704 C 412,444.81476 411.27846,443.50927 409.27441,440.1071 z M 270.71025,438.86218 C 270.99791,437.76218 271.40578,436.86218 271.61663,436.86218 C 271.82748,436.86218 272,437.76218 272,438.86218 C 272,439.96218 271.59213,440.86218 271.09362,440.86218 C 270.59511,440.86218 270.42259,439.96218 270.71025,438.86218 z M 273.62162,426.11218 C 274.56347,422.18619 275,422.05424 275,425.69551 C 275,427.43718 274.54143,428.86218 273.98095,428.86218 C 273.37599,428.86218 273.22998,427.74472 273.62162,426.11218 z M 274.42664,420.19276 C 276.00443,416.08109 277.17894,402.52088 278.04977,378.36218 L 278.23,373.36218 L 278.98965,377.30944 C 280.61237,385.74143 277.16606,421.86218 274.73883,421.86218 C 274.21479,421.86218 274.0743,421.11094 274.42664,420.19276 z M 432.23071,402.98873 C 429.45212,399.18048 426.61744,395.01588 425.93143,393.73405 C 425.24541,392.45222 424.0802,390.79952 423.34206,390.06139 C 422.60393,389.32325 422,388.07647 422,387.29075 C 422,386.50504 421.64031,385.86218 421.20068,385.86218 C 420.09061,385.86218 412,372.18392 412,370.30721 C 412,369.46645 411.1,367.81252 410,366.63181 C 407.97896,364.46247 407.14179,359.21374 409,360.36218 C 409.55,360.7021 410,361.59116 410,362.33786 C 410,363.08457 410.3579,363.84551 410.79533,364.02885 C 411.23277,364.21218 413.23448,367.73718 415.24358,371.86218 C 421.29777,384.29235 431.96759,401.91802 436.27735,406.60824 C 437.41248,407.84357 438.10305,409.09246 437.81195,409.38356 C 437.52086,409.67465 435.0093,406.79698 432.23071,402.98873 z M 406.98988,597.56246 C 408.20796,596.80964 407.05748,592.71696 409.5,582.00504 C 414.28876,570.7083 415.53088,570.86774 413.61835,581.50504 C 410.76004,592.06334 411.95215,585.60265 410.06873,602.14789 C 406.66022,611.1985 403.88851,620.14216 396.11923,634.10657 C 389.28713,639.76069 385.73438,648.8455 376.73786,650.96371 C 375.43444,650.96371 374.76777,650.28692 374.76777,648.96371 C 374.76777,647.55984 375.43841,646.96016 377.01777,646.95179 C 381.27658,646.92922 388.01011,639.23473 393.09385,632.178 C 398.41974,624.78512 399.31309,623.93186 402.95189,614.13384 M 397.75,479.5632 C 400.00217,475.41185 401,472.23541 401,469.21737 C 401,466.82202 400.82644,464.86218 400.61431,464.86218 C 400.40218,464.86218 398.95952,465.5206 397.4084,466.32533 C 395.39482,467.36998 392.92739,467.61489 388.78168,467.18157 C 382.20345,466.49401 379.5825,467.9336 378.50831,472.82433 C 378.00051,475.13635 378.63227,476.32919 382.43917,480.2462 C 384.93392,482.81311 387.71144,486.33728 388.61145,488.0777 L 390.24782,491.24209 L 392.37391,488.39796 C 393.54326,486.8337 395.9625,482.85805 397.75,479.5632 M 290.8075,476.61218 C 290.51848,472.61762 290.30355,472.34326 287.23155,472.04745 L 283.96309,471.73271 L 286.18081,476.29745 C 289.06449,482.23293 291.22481,482.37989 290.8075,476.61218 z M 371.81184,470.6007 C 373.72456,467.50187 372.6846,468.60721 374.85909,465.43787 C 379.27105,461.16874 381.39678,454.24686 381.84565,444.03359 C 382.29097,433.90099 380.49465,428.38169 375.25399,423.78033 L 371.63781,420.60528 L 369.98476,426.48373 C 368.1523,433.00021 365.79495,438.51595 363.78888,440.98089 C 362.2897,442.82301 355.09025,446.64166 347,449.88587 C 340.17198,452.62392 339.32341,453.30792 336.92691,458.00544 C 333.45571,464.80956 333.02985,467.63208 338.85099,466.63478 C 347.93301,466.78565 354.88757,467.50279 362.75008,469.49722 C 369.22688,471.20241 371.23149,473.61423 371.81184,470.6007"
       id="path2453"
       sodipodi:nodetypes="ccccccssscccsssssssscccssssssscccssccssssscccsssscccsssssscccssccsssssssssssssssssssssscccccccccccssccssssssssssssssssssssssssssssssccsssssssssssssssssssssssssscccccsssssssssssssssscccsssssssssssscssssssssssssssscccccccccscccsssscccssssccccsscccccccccscccscccsscsssccccccccsssccccssssssccsccsssssssssssssscccsssssssssssssssssssssssscsssssssssssssssssssssssssssssssssssccsssssccccssccccsscccssssssscscccccccsssssssssssssssssssssssssssssssccccsssssssssssssssssccssssssccsccsssssccssssssssssssssssssssssssscccccccccsssccccssssssssscccssssscccccssssccsssssscccsssssccccsssccccssccccccccssccccscsscccsccccsssccccsssccccsssccccccccssssssccccsscccsssssccsssssccscsccccssssssssssccccssssssssccccsssssssssccccssssssscccssssccccsccccccccccccccssssssssssccccccccssccccssssssccccccccccsscccssc"
       inkscape:export-filename="/home/sarah/git/gardengeek/images/sunny-logo.png"
       inkscape:export-xdpi="85.263161"
       inkscape:export-ydpi="85.263161" />
    <path
       style="fill:#000000"
       d="M 288.43324,534.11504 C 288.0697,535.389 288.17335,542.50266 288.46784,543.84557 C 288.76233,545.18848 284.4009,541.50386 284.34192,540.79446 C 284.17168,538.74673 284.77803,535.43137 284.77803,535.43137 L 286.6299,531.32231 C 289.40971,527.56243 293.55841,524.98835 297.54366,526.49261 C 300.54485,527.62543 306.2971,533.7533 302.29362,539.66483 C 300.78889,541.88671 298.56704,542.90628 295.5751,542.35278 C 291.6755,540.04786 292.66575,537.09268 291.61191,532.18117 M 291.61191,532.18117 C 290.41226,530.99356 288.79678,532.84108 288.43324,534.11504"
       id="path2705"
       sodipodi:nodetypes="ccscccscccs"
       inkscape:export-filename="/home/sarah/git/gardengeek/images/sunny-logo.png"
       inkscape:export-xdpi="85.263161"
       inkscape:export-ydpi="85.263161" />
  </g>
</svg>
